<?xml version="1.0" encoding="utf-8"?>
<!-- Generator: Adobe Illustrator 23.0.3, SVG Export Plug-In . SVG Version: 6.00 Build 0)  -->
<svg version="1.1" id="Layer_1" xmlns="http://www.w3.org/2000/svg" xmlns:xlink="http://www.w3.org/1999/xlink" x="0px" y="0px"
	 viewBox="0 0 850 450" style="enable-background:new 0 0 850 450;" xml:space="preserve">
<style type="text/css">
	.st0{fill:#FFFFFF;}
	.st1{fill:#F7F7F7;}
	.st2{fill:#B3B3B3;}
	.st3{font-family:'Shapiro-45WelterText';}
	.st4{font-size:5.625px;}
	.st5{fill:#FAAF3A;}
	.st6{fill:#FF8B00;}
	.st7{fill:none;stroke:#FFFFFF;stroke-width:5.625;stroke-linecap:round;stroke-linejoin:round;stroke-miterlimit:10;}
	.st8{fill:#00A4FF;}
	.st9{fill:#7BDDFF;}
	.st10{fill:#0080FF;}
	.st11{fill:#8BC540;}
	.st12{fill:none;stroke:#E5E5E5;stroke-width:2.4609;stroke-linecap:round;stroke-linejoin:round;stroke-miterlimit:10;}
	.st13{fill:#FF7F00;}
	.st14{fill:none;stroke:#FFFFFF;stroke-width:2.4609;stroke-linecap:round;stroke-linejoin:round;stroke-miterlimit:10;}
	.st15{fill:none;stroke:#E5E5E5;stroke-width:1.0547;stroke-linecap:round;stroke-linejoin:round;stroke-miterlimit:10;}
	.st16{fill:#71747C;}
	.st17{font-size:8.4375px;}
	.st18{font-family:'Shapiro-85SuperHeavy';}
	.st19{font-size:12.6562px;}
	.st20{fill:#E5E5E5;}
	.st21{opacity:0.75;fill:#F7F7F7;enable-background:new    ;}
	.st22{fill:#DD953E;}
	.st23{fill:none;stroke:#C97F35;stroke-width:5.625;stroke-linecap:round;stroke-linejoin:round;stroke-miterlimit:10;}
	.st24{fill:#C97F35;}
	.st25{fill:#A08EF5;}
	.st26{fill:#7B6BE6;}
	.st27{fill:none;stroke:#E5E5E5;stroke-width:1.2491;stroke-linecap:round;stroke-linejoin:round;stroke-miterlimit:10;}
</style>
<path class="st0" d="M244.3,450H8.8c-4.8,0-8.8-3.9-8.8-8.8V8.8C0,3.9,3.9,0,8.8,0h235.6c4.8,0,8.8,3.9,8.8,8.8v432.4
	C253.1,446.1,249.2,450,244.3,450z"/>
<path class="st1" d="M829.6,450H594c-4.8,0-8.8-3.9-8.8-8.8V8.8c0-4.8,3.9-8.8,8.8-8.8h235.6c4.8,0,8.8,3.9,8.8,8.8v432.4
	C838.4,446.1,834.4,450,829.6,450z"/>
<path class="st1" d="M536.9,450H301.3c-4.8,0-8.8-3.9-8.8-8.8V8.8c0-4.8,3.9-8.8,8.8-8.8h235.6c4.8,0,8.8,3.9,8.8,8.8v432.4
	C545.6,446.1,541.7,450,536.9,450z"/>
<g>
	<text transform="matrix(1 0 0 1 74.0674 140.437)" class="st2 st3 st4">credentials</text>
</g>
<g>
	<text transform="matrix(1 0 0 1 151.231 140.437)" class="st2 st3 st4">verification</text>
</g>
<g>
	<text transform="matrix(1 0 0 1 149.8774 232.2529)" class="st2 st3 st4">connections</text>
</g>
<g>
	<text transform="matrix(1 0 0 1 85.9121 232.2529)" class="st2 st3 st4">cv</text>
</g>
<path class="st5" d="M93.3,162.9H74.7c-3.4,0-6.2,2.8-6.2,6.2v41.7c0,3.4,2.8,6.2,6.2,6.2h28.8c3.4,0,6.2-2.8,6.2-6.2v-31.9
	L93.3,162.9z"/>
<path class="st6" d="M99.5,178.9h10.2l-16.4-16.1v9.8C93.3,176.2,96.1,178.9,99.5,178.9z"/>
<line class="st7" x1="78.1" y1="185.7" x2="95.6" y2="185.7"/>
<line class="st7" x1="78.1" y1="193.5" x2="95.6" y2="193.5"/>
<line class="st7" x1="78.1" y1="200.9" x2="90.5" y2="200.9"/>
<path class="st8" d="M93.3,71.1H74.7c-3.4,0-6.2,2.8-6.2,6.2V119c0,3.4,2.8,6.2,6.2,6.2h28.8c3.4,0,6.2-2.8,6.2-6.2V87.2L93.3,71.1z
	"/>
<path class="st0" d="M104.5,108.9c0.9-0.6,1.3-1.6,1.1-2.6c-0.2-1-1.1-1.8-2.1-1.9c0.6-0.9,0.6-2-0.1-2.8c-0.7-0.9-1.8-1.1-2.8-0.8
	c0.1-1-0.3-2-1.3-2.5c-1-0.5-2.1-0.2-2.8,0.6c-0.3-1-1.2-1.7-2.2-1.7c-1.1,0-2,0.7-2.2,1.7c-0.8-0.8-1.9-1-2.9-0.6
	c-1,0.4-1.5,1.5-1.3,2.5c-1-0.3-2.1-0.1-2.8,0.8c-0.7,0.9-0.7,2-0.1,2.8c-1,0.1-1.9,0.8-2.1,1.9c-0.2,1,0.2,2.1,1.1,2.6
	c-0.9,0.6-1.3,1.6-1.1,2.6c0.2,1,1.1,1.8,2.1,1.9c-0.6,0.9-0.6,2,0.1,2.8c0.4,0.6,1.1,0.9,1.9,0.9c0.3,0,0.6-0.1,0.9-0.1
	c-0.1,1,0.3,2,1.3,2.5c0.3,0.1,0.7,0.2,1,0.2c0.7,0,1.3-0.2,1.8-0.8c0.3,1,1.2,1.7,2.2,1.7c1.1,0,2-0.7,2.2-1.7
	c0.5,0.4,1.1,0.8,1.8,0.8c0.3,0,0.7-0.1,1-0.2c1-0.5,1.5-1.5,1.3-2.5c0.3,0.1,0.6,0.1,0.9,0.1c0.7,0,1.5-0.3,1.9-0.9
	c0.7-0.9,0.7-2,0.1-2.8c1-0.1,1.9-0.8,2.1-1.9C105.9,110.5,105.4,109.5,104.5,108.9z"/>
<ellipse class="st9" cx="94.1" cy="108.9" rx="8.3" ry="8.3"/>
<path class="st10" d="M99.5,87.2h10.2L93.3,71.1V81C93.3,84.4,96.1,87.2,99.5,87.2z"/>
<circle class="st11" cx="166.4" cy="100.9" r="19.7"/>
<path class="st12" d="M141.5,96.3c2.2-11.7,12.5-20.6,24.9-20.6c10.6,0,19.7,6.5,23.4,15.8"/>
<path class="st12" d="M191,106.5c-2.5,11.4-12.6,19.8-24.8,19.8c-10.6,0-19.6-6.4-23.4-15.6"/>
<polyline class="st7" points="159.3,102.6 163.6,107 172.7,99.2 "/>
<polyline class="st12" points="138.9,93.7 141.4,97 144.8,95.2 "/>
<polyline class="st12" points="193.8,107.8 191.5,104.6 188,106.3 "/>
<circle class="st13" cx="166.4" cy="193.5" r="24.1"/>
<path class="st14" d="M177.4,207c0-3.4-2.8-6.2-6.2-6.2h-9.6c-3.4,0-6.2,2.8-6.2,6.2"/>
<path class="st14" d="M166.4,196L166.4,196c-3.6,0-6.5-2.9-6.5-6.5v-2.7c0-3.6,2.9-6.5,6.5-6.5l0,0c3.6,0,6.5,2.9,6.5,6.5v2.7
	C172.9,193.1,170,196,166.4,196z"/>
<g>
	<text transform="matrix(1 0 0 1 107.1631 362.2686)" class="st2 st3 st4">light</text>
</g>
<path class="st15" d="M174.6,366.6c3.4,0,6.2-2.8,6.2-6.2s-2.8-6.2-6.2-6.2h-19.8c-3.4,0-6.2,2.8-6.2,6.2s2.8,6.2,6.2,6.2H174.6z"/>
<path class="st15" d="M85.8,366.6h9.2c3.4,0,6.2-2.8,6.2-6.2s-2.8-6.2-6.2-6.2h-9.2"/>
<circle class="st15" cx="85.8" cy="360.3" r="6.2"/>
<g>
	<text transform="matrix(1 0 0 1 156.0898 362.498)" class="st2 st3 st4">logout</text>
</g>
<polygon class="st8" points="704,409.7 704,418.4 711.6,422.8 719.1,418.4 719.1,409.7 711.6,405.3 "/>
<path class="st0" d="M712.6,409.7c0.9,0,1.6,0.2,2.1,0.7c0.6,0.4,0.8,1,0.8,1.7c0,0.8-0.3,1.4-1.1,1.7l0,0c0.5,0.2,0.8,0.4,1,0.8
	c0.2,0.3,0.3,0.8,0.3,1.2c0,0.8-0.2,1.5-0.8,1.9c-0.6,0.4-1.2,0.7-2.1,0.7h-4.7v-8.7L712.6,409.7L712.6,409.7z M710.3,413.2h1.7
	c0.3,0,0.6-0.1,0.8-0.2c0.2-0.1,0.2-0.3,0.2-0.7s-0.1-0.6-0.2-0.7c-0.2-0.1-0.5-0.2-0.8-0.2h-1.7V413.2z M713.1,416.5
	c0.2-0.2,0.3-0.4,0.3-0.7c0-0.3-0.1-0.6-0.3-0.7c-0.2-0.2-0.5-0.2-0.8-0.2h-1.9v1.9h1.9C712.6,416.7,712.9,416.6,713.1,416.5z"/>
<g>
	<text transform="matrix(1 0 0 1 631.8799 71.8052)" class="st16 st3 st17">RealCare+</text>
	<text transform="matrix(1 0 0 1 631.8799 81.7056)" class="st2 st3 st4">verification of CV</text>
	<text transform="matrix(1 0 0 1 631.8799 113.9927)" class="st16 st3 st17">Nursing &amp; Midwifery </text>
	<text transform="matrix(1 0 0 1 631.8799 124.1177)" class="st16 st3 st17">Council (NMC)</text>
	<text transform="matrix(1 0 0 1 631.8799 133.9048)" class="st2 st3 st4">verification of employment records</text>
</g>
<g>
	<text transform="matrix(1 0 0 1 631.8799 170.5708)" class="st16 st3 st17">RealCare+</text>
	<text transform="matrix(1 0 0 1 631.8799 180.4712)" class="st2 st3 st4">verification of CV</text>
	<text transform="matrix(1 0 0 1 631.8799 212.7578)" class="st16 st3 st17">Nursing &amp; Midwifery </text>
	<text transform="matrix(1 0 0 1 631.8799 222.8828)" class="st16 st3 st17">Council (NMC)</text>
	<text transform="matrix(1 0 0 1 631.8799 232.6709)" class="st2 st3 st4">verification of employment records</text>
</g>
<g>
	<text transform="matrix(1 0 0 1 631.8799 269.3369)" class="st16 st3 st17">RealCare+</text>
	<text transform="matrix(1 0 0 1 631.8799 279.2373)" class="st2 st3 st4">verification of CV</text>
</g>
<path class="st0" d="M793.6,82h-38c-3.4,0-6.1-2.7-6.1-6.1v-5.5c0-3.4,2.7-6.1,6.1-6.1h38c3.4,0,6.1,2.7,6.1,6.1v5.5
	C799.6,79.3,797,82,793.6,82z"/>
<text transform="matrix(1 0 0 1 757.9482 75.624)" class="st16 st3 st4">20 Feb. 2019</text>
<path class="st0" d="M793.6,124.9h-38c-3.4,0-6.1-2.7-6.1-6.1v-5.5c0-3.4,2.7-6.1,6.1-6.1h38c3.4,0,6.1,2.7,6.1,6.1v5.5
	C799.6,122.2,797,124.9,793.6,124.9z"/>
<text transform="matrix(1 0 0 1 757.9482 118.5322)" class="st2 st3 st4">20 Feb. 2019</text>
<path class="st0" d="M793.6,179.8h-38c-3.4,0-6.1-2.7-6.1-6.1v-5.5c0-3.4,2.7-6.1,6.1-6.1h38c3.4,0,6.1,2.7,6.1,6.1v5.5
	C799.6,177.1,797,179.8,793.6,179.8z"/>
<text transform="matrix(1 0 0 1 757.9482 173.394)" class="st2 st3 st4">20 Feb. 2019</text>
<path class="st0" d="M793.6,225h-38c-3.4,0-6.1-2.7-6.1-6.1v-5.5c0-3.4,2.7-6.1,6.1-6.1h38c3.4,0,6.1,2.7,6.1,6.1v5.5
	C799.6,222.3,797,225,793.6,225z"/>
<text transform="matrix(1 0 0 1 757.9482 218.6045)" class="st2 st3 st4">20 Feb. 2019</text>
<path class="st0" d="M793.6,279.2h-38c-3.4,0-6.1-2.7-6.1-6.1v-5.5c0-3.4,2.7-6.1,6.1-6.1h38c3.4,0,6.1,2.7,6.1,6.1v5.5
	C799.6,276.5,797,279.2,793.6,279.2z"/>
<text transform="matrix(1 0 0 1 757.9482 272.7861)" class="st2 st3 st4">20 Feb. 2019</text>
<path class="st0" d="M513.2,424.9H324.3c-5.5,0-10-4.5-10-10V312c0-5.5,4.5-10,10-10h188.8c5.5,0,10,4.5,10,10v102.9
	C523.2,420.4,518.7,424.9,513.2,424.9z"/>
<path class="st0" d="M513.2,164.9H324.3c-5.5,0-10-4.5-10-10V52c0-5.5,4.5-10,10-10h188.8c5.5,0,10,4.5,10,10v102.9
	C523.2,160.4,518.7,164.9,513.2,164.9z"/>
<path class="st0" d="M513.2,294.9H324.3c-5.5,0-10-4.5-10-10V181.9c0-5.5,4.5-10,10-10h188.8c5.5,0,10,4.5,10,10v102.9
	C523.2,290.4,518.7,294.9,513.2,294.9z"/>
<g>
	<text transform="matrix(1 0 0 1 337.9702 71.6982)" class="st16 st18 st17">Nursing and</text>
	<text transform="matrix(1 0 0 1 337.9702 81.5981)" class="st16 st18 st17">Midwifery Council</text>
	<text transform="matrix(1 0 0 1 337.9702 108.2607)" class="st2 st3 st4">PIN</text>
	<text transform="matrix(1 0 0 1 337.9702 120.9731)" class="st16 st3 st19">1234567890</text>
	<text transform="matrix(1 0 0 1 337.9702 141.2227)" class="st2 st3 st4">Date of reg.</text>
	<text transform="matrix(1 0 0 1 337.9702 150.3354)" class="st2 st3 st17">01/01/2019</text>
</g>
<text transform="matrix(1 0 0 1 423.4717 141.1665)" class="st11 st3 st4">Valid until</text>
<text transform="matrix(1 0 0 1 423.4717 150.2793)" class="st11 st3 st17">01 January 2021</text>
<g>
	<text transform="matrix(1 0 0 1 337.9702 201.6719)" class="st16 st18 st17">Kings College </text>
	<text transform="matrix(1 0 0 1 337.9702 211.5713)" class="st16 st18 st17">Nursing School</text>
	<text transform="matrix(1 0 0 1 337.9702 237.8965)" class="st2 st3 st4">degree</text>
	<text transform="matrix(1 0 0 1 337.9702 250.6094)" class="st16 st3 st19">B.Sc. </text>
	<text transform="matrix(1 0 0 1 370.7075 250.6094)" class="st16 st3 st17">(Hons)</text>
	<text transform="matrix(1 0 0 1 397.708 250.6094)" class="st16 st3 st19"> in Nursing </text>
	<text transform="matrix(1 0 0 1 337.9702 270.8594)" class="st2 st3 st4">grade</text>
	<text transform="matrix(1 0 0 1 337.9702 279.9717)" class="st2 st3 st17">2.1</text>
</g>
<g>
	<g>
		<path class="st20" d="M501,201.5L501,201.5c0.2-0.3,0.1-0.7-0.1-0.9l-7-4.3c-0.2-0.1-0.4-0.1-0.7,0l-7,4.3
			c-0.3,0.2-0.3,0.7-0.1,0.9l0,0c0.2,0.2,0.6,0.3,0.8,0.1l6.3-3.9c0.2-0.1,0.5-0.1,0.7,0l6.3,3.9C500.4,201.8,500.7,201.7,501,201.5
			z"/>
		<path class="st20" d="M499.3,209.4h-11.6c-0.3,0-0.7-0.2-0.7-0.7l0,0c0-0.3,0.2-0.7,0.7-0.7h11.6c0.3,0,0.7,0.2,0.7,0.7l0,0
			C499.9,209,499.6,209.4,499.3,209.4z"/>
		<g>
			<path class="st20" d="M489.1,202.5v3.8c0,0.3-0.2,0.7-0.7,0.7l0,0c-0.3,0-0.7-0.2-0.7-0.7v-3.8c0-0.3,0.2-0.7,0.7-0.7l0,0
				C488.8,201.8,489.1,202.2,489.1,202.5z"/>
			<path class="st20" d="M491.6,202.5v3.8c0,0.3-0.2,0.7-0.7,0.7l0,0c-0.3,0-0.7-0.2-0.7-0.7v-3.8c0-0.3,0.2-0.7,0.7-0.7l0,0
				C491.4,201.8,491.6,202.2,491.6,202.5z"/>
			<path class="st20" d="M494.1,202.5v3.8c0,0.3-0.2,0.7-0.7,0.7l0,0c-0.3,0-0.7-0.2-0.7-0.7v-3.8c0-0.3,0.2-0.7,0.7-0.7l0,0
				C493.9,201.8,494.1,202.2,494.1,202.5z"/>
			<path class="st20" d="M496.7,202.5v3.8c0,0.3-0.2,0.7-0.7,0.7l0,0c-0.3,0-0.7-0.2-0.7-0.7v-3.8c0-0.3,0.2-0.7,0.7-0.7l0,0
				C496.4,201.8,496.7,202.2,496.7,202.5z"/>
			<path class="st20" d="M499.2,202.5v3.8c0,0.3-0.2,0.7-0.7,0.7l0,0c-0.3,0-0.7-0.2-0.7-0.7v-3.8c0-0.3,0.2-0.7,0.7-0.7l0,0
				C498.8,201.8,499.2,202.2,499.2,202.5z"/>
		</g>
	</g>
</g>
<text transform="matrix(1 0 0 1 423.4717 270.8594)" class="st2 st3 st4">date</text>
<text transform="matrix(1 0 0 1 423.4717 279.9717)" class="st2 st3 st17">01 January 2019</text>
<g>
	<text transform="matrix(1 0 0 1 338.0649 331.6787)" class="st16 st18 st17">Milton Keynes</text>
	<text transform="matrix(1 0 0 1 338.0649 341.5791)" class="st16 st18 st17">Hospital Trust</text>
	<text transform="matrix(1 0 0 1 338.0649 367.9033)" class="st2 st3 st4">job description</text>
	<text transform="matrix(1 0 0 1 338.0649 380.6162)" class="st16 st3 st19">Senior Staff Nurse</text>
	<text transform="matrix(1 0 0 1 338.0649 400.8662)" class="st2 st3 st4">Date of reg.</text>
	<text transform="matrix(1 0 0 1 338.0649 409.9795)" class="st2 st3 st17">01/01/2019</text>
</g>
<text transform="matrix(1 0 0 1 483.0322 71.8057)" class="st20 st18 st17">NMC</text>
<rect x="294.9" y="385.1" class="st21" width="245" height="55.6"/>
<polygon class="st8" points="411.5,409.7 411.5,418.4 419.1,422.8 426.6,418.4 426.6,409.7 419.1,405.3 "/>
<path class="st0" d="M420.1,409.7c0.9,0,1.6,0.2,2.1,0.7c0.4,0.4,0.8,1,0.8,1.7c0,0.8-0.3,1.4-1.1,1.7l0,0c0.4,0.2,0.8,0.4,1,0.8
	c0.2,0.3,0.3,0.8,0.3,1.2c0,0.8-0.2,1.5-0.8,1.9c-0.6,0.4-1.2,0.7-2.1,0.7h-4.7v-8.7L420.1,409.7L420.1,409.7z M417.8,413.2h1.7
	c0.3,0,0.6-0.1,0.8-0.2c0.2-0.1,0.2-0.3,0.2-0.7s-0.1-0.6-0.2-0.7c-0.2-0.1-0.5-0.2-0.8-0.2h-1.7V413.2z M420.6,416.5
	c0.2-0.2,0.3-0.4,0.3-0.7c0-0.3-0.1-0.6-0.3-0.7c-0.2-0.2-0.4-0.2-0.8-0.2h-1.9v1.9h1.9C420.1,416.7,420.4,416.6,420.6,416.5z"/>
<g>
	<text transform="matrix(1 0 0 1 83.519 318.8301)" class="st2 st3 st4">jobs</text>
</g>
<g>
	<text transform="matrix(1 0 0 1 156.1133 318.8301)" class="st2 st3 st4">training</text>
</g>
<path class="st22" d="M62.9,272.5v27c0,3.4,2.8,6.2,6.2,6.2h40c3.4,0,6.2-2.8,6.2-6.2v-27c0-3.4-2.8-6.2-6.2-6.2h-40
	C65.7,266.3,62.9,269.1,62.9,272.5z"/>
<path class="st23" d="M99.8,268.4v-4.1c0-2.5-2-4.5-4.5-4.5H83.1c-2.5,0-4.5,2-4.5,4.5v4.1"/>
<path class="st24" d="M62.9,272.5v5.8c0,3.4,2.8,6.2,6.2,6.2h40c3.4,0,6.2-2.8,6.2-6.2v-5.8c0-3.4-2.8-6.2-6.2-6.2h-40
	C65.7,266.3,62.9,269.1,62.9,272.5z"/>
<line class="st23" x1="76.6" y1="281.6" x2="76.6" y2="287"/>
<line class="st23" x1="101.9" y1="281.6" x2="101.9" y2="287"/>
<path class="st25" d="M180.8,252.9h-28.7c-3.4,0-6.2,2.8-6.2,6.2v41.7c0,3.4,2.8,6.2,6.2,6.2h28.7c3.4,0,6.2-2.8,6.2-6.2v-41.7
	C187,255.7,184.2,252.9,180.8,252.9z"/>
<path class="st26" d="M175.6,252.9h-23.3c-3.6,0-6.4,2.9-6.4,6.4v41.3c0,3.6,2.9,6.4,6.4,6.4h23.3c3.6,0,6.4-2.9,6.4-6.4v-41.3
	C182,255.8,179.2,252.9,175.6,252.9z"/>
<line class="st7" x1="157.2" y1="269.4" x2="170.9" y2="269.4"/>
<line class="st7" x1="157.2" y1="277.2" x2="170.9" y2="277.2"/>
<line class="st7" x1="157.2" y1="284.9" x2="170.9" y2="284.9"/>
<g>
	<path class="st20" d="M494.1,328.5v1.9c0,0.3-0.2,0.7-0.7,0.7l0,0c-0.3,0-0.7-0.2-0.7-0.7v-1.9c0-0.3,0.2-0.7,0.7-0.7l0,0
		C493.9,327.8,494.1,328.2,494.1,328.5z"/>
	<path class="st20" d="M492.5,328.8h1.9c0.3,0,0.7,0.2,0.7,0.7l0,0c0,0.3-0.2,0.7-0.7,0.7h-1.9c-0.3,0-0.7-0.2-0.7-0.7l0,0
		C492,329.1,492.2,328.8,492.5,328.8z"/>
	<polyline class="st27" points="488.5,339.6 488.5,325.9 498.5,325.9 498.5,339.6 	"/>
	<g>
		<line class="st27" x1="491.4" y1="333.3" x2="492.4" y2="333.3"/>
		<line class="st27" x1="494.7" y1="333.3" x2="495.7" y2="333.3"/>
	</g>
	<g>
		<line class="st27" x1="491.4" y1="335.6" x2="492.4" y2="335.6"/>
		<line class="st27" x1="494.7" y1="335.6" x2="495.7" y2="335.6"/>
	</g>
</g>
</svg>
