<?xml version="1.0" encoding="utf-8"?>
<!-- Generator: Adobe Illustrator 23.0.3, SVG Export Plug-In . SVG Version: 6.00 Build 0)  -->
<svg version="1.1" id="Layer_1" xmlns="http://www.w3.org/2000/svg" xmlns:xlink="http://www.w3.org/1999/xlink" x="0px" y="0px"
	 viewBox="0 0 350 450" style="enable-background:new 0 0 350 450;" xml:space="preserve">
<style type="text/css">
	.st0{fill:#00A4FF;}
	.st1{fill:#FFFFFF;}
	.st2{fill:#7BDDFF;}
	.st3{fill:#0080FF;}
	.st4{fill:#8BC540;}
	.st5{fill:none;stroke:#E5E5E5;stroke-width:4.5455;stroke-linecap:round;stroke-linejoin:round;stroke-miterlimit:10;}
	.st6{fill:none;stroke:#FFFFFF;stroke-width:10.3896;stroke-linecap:round;stroke-linejoin:round;stroke-miterlimit:10;}
	.st7{fill:#FAAF3A;}
	.st8{fill:#FF8B00;}
	.st9{fill:#FF7F00;}
	.st10{fill:none;stroke:#FFFFFF;stroke-width:4.5455;stroke-linecap:round;stroke-linejoin:round;stroke-miterlimit:10;}
	.st11{fill:#DD953E;}
	.st12{fill:none;stroke:#C97F35;stroke-width:10.3896;stroke-linecap:round;stroke-linejoin:round;stroke-miterlimit:10;}
	.st13{fill:#C97F35;}
	.st14{fill:#A08EF5;}
	.st15{fill:#7B6BE6;}
</style>
<path class="st0" d="M68.7,68H34.5C28.1,68,23,73.1,23,79.5v77.1c0,6.3,5.1,11.5,11.5,11.5h53c6.3,0,11.5-5.1,11.5-11.5v-59L68.7,68
	z"/>
<path class="st1" d="M89.4,137.8c1.6-0.9,2.6-2.9,2.1-4.8c-0.4-1.9-2.1-3.3-4-3.4c1.1-1.6,1-3.7-0.2-5.3c-1.2-1.6-3.3-2.1-5.1-1.4
	c0.3-1.9-0.7-3.8-2.5-4.7c-1.8-0.9-3.9-0.4-5.2,1c-0.6-1.8-2.2-3.1-4.2-3.1s-3.7,1.3-4.2,3.1c-1.3-1.4-3.4-1.8-5.2-1
	c-1.8,0.9-2.8,2.8-2.5,4.7c-1.8-0.7-3.9-0.2-5.1,1.4c-1.3,1.5-1.3,3.7-0.2,5.2c-1.9,0.1-3.6,1.5-4,3.4c-0.4,1.9,0.5,3.9,2.1,4.8
	c-1.6,0.9-2.6,2.9-2.1,4.8c0.4,1.9,2.1,3.3,4,3.4c-1.1,1.6-1,3.7,0.2,5.3c0.9,1.1,2.2,1.7,3.5,1.7c0.5,0,1.1-0.1,1.6-0.3
	c-0.3,1.9,0.7,3.8,2.5,4.7c0.6,0.3,1.3,0.4,1.9,0.4c1.2,0,2.4-0.5,3.3-1.4c0.6,1.8,2.2,3.1,4.2,3.1s3.7-1.3,4.2-3.1
	c0.8,0.9,2,1.4,3.3,1.4c0.6,0,1.3-0.1,1.9-0.4c1.8-0.9,2.8-2.8,2.5-4.7c0.5,0.2,1.1,0.3,1.6,0.3c1.3,0,2.6-0.6,3.5-1.7
	c1.2-1.6,1.3-3.7,0.2-5.3c1.9-0.1,3.6-1.5,4-3.4C91.9,140.7,91,138.8,89.4,137.8z"/>
<ellipse class="st2" cx="70.3" cy="137.8" rx="15.4" ry="15.4"/>
<path class="st3" d="M80.1,97.6H99L68.7,68v18.2C68.7,92.5,73.8,97.6,80.1,97.6z"/>
<circle class="st4" cx="175.7" cy="124.7" r="36.4"/>
<path class="st5" d="M129.7,116.1c4.1-21.7,23.1-38.1,45.9-38.1c19.6,0,36.3,12,43.3,29.1"/>
<path class="st5" d="M221.3,135c-4.7,20.9-23.3,36.5-45.6,36.5c-19.5,0-36.2-11.9-43.2-28.9"/>
<polyline class="st6" points="162.6,127.7 170.5,135.8 187.4,121.5 "/>
<polyline class="st5" points="125,111.4 129.5,117.3 135.9,114.1 "/>
<polyline class="st5" points="226.5,137.3 222,131.4 215.6,134.7 "/>
<path class="st7" d="M300.7,68h-34.2c-6.3,0-11.5,5.1-11.5,11.5v77.1c0,6.3,5.1,11.5,11.5,11.5h53c6.3,0,11.5-5.1,11.5-11.5v-59
	L300.7,68z"/>
<path class="st8" d="M312.1,97.6H331L300.7,68v18.2C300.7,92.5,305.8,97.6,312.1,97.6z"/>
<line class="st6" x1="272.6" y1="110.3" x2="305.1" y2="110.3"/>
<line class="st6" x1="272.6" y1="124.5" x2="305.1" y2="124.5"/>
<line class="st6" x1="272.6" y1="138.4" x2="295.5" y2="138.4"/>
<circle class="st9" cx="61.5" cy="260.5" r="44.5"/>
<path class="st10" d="M81.7,285.5c0-6.3-5.1-11.5-11.5-11.5H52.7c-6.3,0-11.5,5.1-11.5,11.5"/>
<path class="st10" d="M61.5,265L61.5,265c-6.6,0-12-5.4-12-12v-5.1c0-6.6,5.4-12,12-12l0,0c6.6,0,12,5.4,12,12v5.1
	C73.5,259.6,68.1,265,61.5,265z"/>
<path class="st11" d="M128,242.2V292c0,6.3,5.1,11.5,11.5,11.5h73.8c6.3,0,11.5-5.1,11.5-11.5v-49.8c0-6.3-5.1-11.5-11.5-11.5h-73.8
	C133.1,230.7,128,235.8,128,242.2z"/>
<path class="st12" d="M196.2,234.7v-7.5c0-4.6-3.7-8.3-8.2-8.3h-22.5c-4.5,0-8.2,3.7-8.2,8.3v7.5"/>
<path class="st13" d="M128,242.2V253c0,6.3,5.1,11.5,11.5,11.5h73.8c6.3,0,11.5-5.1,11.5-11.5v-10.8c0-6.3-5.1-11.5-11.5-11.5h-73.8
	C133.1,230.7,128,235.8,128,242.2z"/>
<line class="st12" x1="153.3" y1="258.9" x2="153.3" y2="269"/>
<line class="st12" x1="200.1" y1="258.9" x2="200.1" y2="269"/>
<path class="st14" d="M319.5,206h-53c-6.3,0-11.5,5.1-11.5,11.5v77.1c0,6.3,5.1,11.5,11.5,11.5h53c6.3,0,11.5-5.1,11.5-11.5v-77.1
	C331,211.1,325.8,206,319.5,206z"/>
<path class="st15" d="M310,206h-43c-6.6,0-11.9,5.3-11.9,11.9v76.2c0,6.6,5.3,11.9,11.9,11.9h43c6.6,0,11.9-5.3,11.9-11.9v-76.2
	C321.9,211.3,316.5,206,310,206z"/>
<line class="st6" x1="275.9" y1="236.6" x2="301.3" y2="236.6"/>
<line class="st6" x1="275.9" y1="250.8" x2="301.3" y2="250.8"/>
<line class="st6" x1="275.9" y1="265.1" x2="301.3" y2="265.1"/>
</svg>
