<?xml version="1.0" encoding="utf-8"?>
<!-- Generator: Adobe Illustrator 23.0.3, SVG Export Plug-In . SVG Version: 6.00 Build 0)  -->
<svg version="1.1" id="Layer_1" xmlns="http://www.w3.org/2000/svg" xmlns:xlink="http://www.w3.org/1999/xlink" x="0px" y="0px"
	 viewBox="0 0 850 450" style="enable-background:new 0 0 850 450;" xml:space="preserve">
<style type="text/css">
	.st0{fill:#F7F7F7;}
	.st1{fill:#00A4FF;}
	.st2{fill:#FFFFFF;}
	.st3{fill:none;}
	.st4{fill:#71747C;}
	.st5{font-family:'Shapiro-45WelterText';}
	.st6{font-size:8.4375px;}
	.st7{fill:#B3B3B3;}
	.st8{font-size:5.625px;}
	.st9{font-size:12.6562px;}
	.st10{fill:#8BC540;}
	.st11{font-family:'Shapiro-85SuperHeavy';}
	.st12{fill:none;stroke:#F7F7F7;stroke-width:1.0547;stroke-linecap:round;stroke-linejoin:round;stroke-miterlimit:10;}
	.st13{fill:#E5E5E5;}
	.st14{fill:none;stroke:#E5E5E5;stroke-width:1.2491;stroke-linecap:round;stroke-linejoin:round;stroke-miterlimit:10;}
	.st15{fill:none;stroke:#FFFFFF;stroke-width:1.2491;stroke-linecap:round;stroke-linejoin:round;stroke-miterlimit:10;}
	.st16{fill:none;stroke:#E5E5E5;stroke-width:1.0547;stroke-linecap:round;stroke-linejoin:round;stroke-miterlimit:10;}
	.st17{fill:none;stroke:#FFFFFF;stroke-width:0.7031;stroke-linecap:round;stroke-linejoin:round;stroke-miterlimit:10;}
	.st18{fill:#FAAF3A;}
	.st19{fill:#FAAF3A;stroke:#FFFFFF;stroke-width:0.7031;stroke-linecap:round;stroke-linejoin:round;stroke-miterlimit:10;}
</style>
<path class="st0" d="M244.3,450H8.8c-4.8,0-8.8-3.9-8.8-8.8V8.8C0,3.9,3.9,0,8.8,0h235.6c4.8,0,8.8,3.9,8.8,8.8v432.4
	C253.1,446.1,249.2,450,244.3,450z"/>
<polygon class="st1" points="119,409.7 119,418.4 126.6,422.8 134.1,418.4 134.1,409.7 126.6,405.3 "/>
<path class="st2" d="M127.6,409.7c0.9,0,1.6,0.2,2.1,0.7c0.6,0.4,0.8,1,0.8,1.7c0,0.8-0.3,1.4-1.1,1.7l0,0c0.4,0.2,0.8,0.4,1,0.8
	c0.2,0.3,0.3,0.8,0.3,1.2c0,0.8-0.2,1.5-0.8,1.9c-0.6,0.4-1.2,0.7-2.1,0.7h-4.7v-8.7L127.6,409.7L127.6,409.7z M125.3,413.2h1.7
	c0.3,0,0.6-0.1,0.8-0.2c0.2-0.1,0.2-0.3,0.2-0.7s-0.1-0.6-0.2-0.7c-0.2-0.1-0.4-0.2-0.8-0.2h-1.7V413.2z M128.1,416.5
	c0.2-0.2,0.3-0.4,0.3-0.7c0-0.3-0.1-0.6-0.3-0.7c-0.2-0.2-0.4-0.2-0.8-0.2h-1.9v1.9h1.9C127.6,416.7,127.9,416.6,128.1,416.5z"/>
<path class="st2" d="M220.9,148.5H32.1c-5.5,0-10-4.5-10-10V52c0-5.5,4.5-10,10-10h188.8c5.5,0,10,4.5,10,10v86.5
	C231,144,226.5,148.5,220.9,148.5z"/>
<g>
	<rect x="45.7" y="65.6" class="st3" width="116.3" height="185.4"/>
	<text transform="matrix(1 0 0 1 45.7031 71.6982)" class="st4 st5 st6">Reducing medication</text>
	<text transform="matrix(1 0 0 1 45.7031 81.8232)" class="st4 st5 st6">errors in nursing practice </text>
	<text transform="matrix(1 0 0 1 45.7031 102.0732)" class="st7 st5 st8">Type</text>
	<text transform="matrix(1 0 0 1 45.7031 108.8232)" class="st4 st5 st8">CPD modules</text>
	<text transform="matrix(1 0 0 1 45.7031 122.3232)" class="st7 st5 st8">Level</text>
	<text transform="matrix(1 0 0 1 45.7031 129.0732)" class="st7 st5 st8">Students, Qualified</text>
	<text transform="matrix(1 0 0 1 45.7031 135.8232)" class="st7 st5 st8">Nurses</text>
	<text transform="matrix(1 0 0 1 45.7031 175.4233)" class="st4 st5 st6">Reducing medication</text>
	<text transform="matrix(1 0 0 1 45.7031 185.5483)" class="st4 st5 st6">errors in nursing practice</text>
	<text transform="matrix(1 0 0 1 45.7031 218.5107)" class="st4 st5 st6">Reducing medication</text>
	<text transform="matrix(1 0 0 1 45.7031 228.6357)" class="st4 st5 st6">errors in nursing practice</text>
</g>
<text transform="matrix(1 0 0 1 135.2754 118.5889)" class="st7 st5 st8">Duration</text>
<text transform="matrix(1 0 0 1 135.2754 129.8389)" class="st4 st5 st9">1h 53m</text>
<circle class="st10" cx="207.9" cy="125.3" r="14.1"/>
<g>
	<text transform="matrix(1 0 0 1 201.5591 127.4268)" class="st2 st5 st8">start</text>
</g>
<path class="st2" d="M208.5,187.8H172c-3.4,0-6.1-2.7-6.1-6.1v-8.3c0-3.4,2.7-6.1,6.1-6.1h36.4c3.4,0,6.1,2.7,6.1,6.1v8.3
	C214.4,185.1,211.7,187.8,208.5,187.8z"/>
<g>
	<text transform="matrix(1 0 0 1 177.0103 180.666)" class="st7 st5 st6">2h 10m</text>
</g>
<path class="st2" d="M208.5,229.5H172c-3.4,0-6.1-2.7-6.1-6.1v-8.3c0-3.4,2.7-6.1,6.1-6.1h36.4c3.4,0,6.1,2.7,6.1,6.1v8.3
	C214.4,226.8,211.7,229.5,208.5,229.5z"/>
<g>
	<text transform="matrix(1 0 0 1 177.0103 222.373)" class="st7 st5 st6">2h 10m</text>
</g>
<path class="st0" d="M829.4,450H593.8c-4.8,0-8.8-3.9-8.8-8.8V8.8c0-4.8,3.9-8.8,8.8-8.8h235.6c4.8,0,8.8,3.9,8.8,8.8v432.4
	C838.1,446.1,834.2,450,829.4,450z"/>
<polygon class="st1" points="704,409.7 704,418.4 711.6,422.8 719.1,418.4 719.1,409.7 711.6,405.3 "/>
<path class="st2" d="M712.7,409.7c0.9,0,1.6,0.2,2.1,0.7c0.6,0.4,0.8,1,0.8,1.7c0,0.8-0.3,1.4-1.1,1.7l0,0c0.5,0.2,0.8,0.4,1,0.8
	c0.2,0.3,0.3,0.8,0.3,1.2c0,0.8-0.2,1.5-0.8,1.9c-0.6,0.4-1.2,0.7-2.1,0.7h-4.7v-8.7L712.7,409.7L712.7,409.7z M710.4,413.2h1.7
	c0.3,0,0.6-0.1,0.8-0.2c0.2-0.1,0.2-0.3,0.2-0.7s-0.1-0.6-0.2-0.7c-0.2-0.1-0.5-0.2-0.8-0.2h-1.7V413.2z M713.1,416.5
	c0.2-0.2,0.3-0.4,0.3-0.7c0-0.3-0.1-0.6-0.3-0.7c-0.2-0.2-0.5-0.2-0.8-0.2h-1.9v1.9h1.9C712.7,416.7,712.9,416.6,713.1,416.5z"/>
<path class="st2" d="M800,383.9H623c-8.8,0-16-7.1-16-16V56.7c0-8.8,7.1-16,16-16h177c8.8,0,16,7.1,16,16v311.2
	C816,376.8,808.8,383.9,800,383.9z"/>
<g>
	<text transform="matrix(1 0 0 1 630.7939 73.457)" class="st4 st11 st9">Alice Stewart</text>
	<text transform="matrix(1 0 0 1 630.7939 93.1445)" class="st7 st5 st6">NMC PIN</text>
	<text transform="matrix(1 0 0 1 630.7939 105.8569)" class="st4 st5 st9">1234567890</text>
	<text transform="matrix(1 0 0 1 630.7939 139.6069)" class="st7 st5 st8">Qualification</text>
	<text transform="matrix(1 0 0 1 630.7939 149.3945)" class="st4 st11 st6">Kings College </text>
	<text transform="matrix(1 0 0 1 630.7939 159.1816)" class="st4 st11 st6">Nursing School</text>
	<text transform="matrix(1 0 0 1 630.7939 175.832)" class="st7 st5 st8">degree</text>
	<text transform="matrix(1 0 0 1 630.7939 188.4316)" class="st4 st5 st9">B.Sc. </text>
	<text transform="matrix(1 0 0 1 663.5322 188.4316)" class="st4 st5 st6">(Hons)</text>
	<text transform="matrix(1 0 0 1 690.5322 188.4316)" class="st4 st5 st9"> in Nursing </text>
	<text transform="matrix(1 0 0 1 630.7939 208.6816)" class="st7 st5 st8">grade</text>
	<text transform="matrix(1 0 0 1 630.7939 217.9062)" class="st7 st5 st6">2.1</text>
	<text transform="matrix(1 0 0 1 630.7939 258.4062)" class="st7 st5 st8">Current employment</text>
	<text transform="matrix(1 0 0 1 630.7939 268.1943)" class="st4 st11 st6">Milton Keynes</text>
	<text transform="matrix(1 0 0 1 630.7939 278.0938)" class="st4 st11 st6">Hospital Trust</text>
	<text transform="matrix(1 0 0 1 630.7939 294.6318)" class="st7 st5 st8">job description</text>
	<text transform="matrix(1 0 0 1 630.7939 307.3438)" class="st4 st5 st9">Senior Staff Nurse</text>
	<text transform="matrix(1 0 0 1 630.7939 320.8438)" class="st7 st5 st8">duration</text>
	<text transform="matrix(1 0 0 1 630.7939 329.957)" class="st7 st5 st6">01 /01 /2019  -  present</text>
</g>
<text transform="matrix(1 0 0 1 712.4531 208.8223)" class="st7 st5 st8">date</text>
<text transform="matrix(1 0 0 1 712.4531 217.9346)" class="st7 st5 st6">01 January 2019</text>
<line class="st12" x1="643.4" y1="236.7" x2="780.4" y2="236.7"/>
<line class="st12" x1="643.4" y1="120.6" x2="780.4" y2="120.6"/>
<path class="st13" d="M793.7,147L793.7,147c0.2-0.3,0.1-0.7-0.1-0.9l-7-4.3c-0.2-0.1-0.5-0.1-0.7,0l-7,4.3c-0.3,0.2-0.3,0.7-0.1,0.9
	l0,0c0.2,0.2,0.6,0.3,0.8,0.1l6.3-3.9c0.2-0.1,0.5-0.1,0.7,0l6.3,3.9C793.1,147.4,793.5,147.3,793.7,147z"/>
<path class="st13" d="M792,154.9h-11.6c-0.3,0-0.7-0.2-0.7-0.7l0,0c0-0.3,0.2-0.7,0.7-0.7H792c0.3,0,0.7,0.2,0.7,0.7l0,0
	C792.6,154.6,792.3,154.9,792,154.9z"/>
<g>
	<path class="st13" d="M781.9,148.1v3.8c0,0.3-0.2,0.7-0.7,0.7l0,0c-0.3,0-0.7-0.2-0.7-0.7v-3.8c0-0.3,0.2-0.7,0.7-0.7l0,0
		C781.5,147.4,781.9,147.7,781.9,148.1z"/>
	<path class="st13" d="M784.4,148.1v3.8c0,0.3-0.2,0.7-0.7,0.7l0,0c-0.3,0-0.7-0.2-0.7-0.7v-3.8c0-0.3,0.2-0.7,0.7-0.7l0,0
		C784.1,147.4,784.4,147.7,784.4,148.1z"/>
	<path class="st13" d="M786.8,148.1v3.8c0,0.3-0.2,0.7-0.7,0.7l0,0c-0.3,0-0.7-0.2-0.7-0.7v-3.8c0-0.3,0.2-0.7,0.7-0.7l0,0
		C786.6,147.4,786.8,147.7,786.8,148.1z"/>
	<path class="st13" d="M789.3,148.1v3.8c0,0.3-0.2,0.7-0.7,0.7l0,0c-0.3,0-0.7-0.2-0.7-0.7v-3.8c0-0.3,0.2-0.7,0.7-0.7l0,0
		C789.1,147.4,789.3,147.7,789.3,148.1z"/>
	<path class="st13" d="M791.9,148.1v3.8c0,0.3-0.2,0.7-0.7,0.7l0,0c-0.3,0-0.7-0.2-0.7-0.7v-3.8c0-0.3,0.2-0.7,0.7-0.7l0,0
		C791.5,147.4,791.9,147.7,791.9,148.1z"/>
</g>
<path class="st13" d="M787.5,262.9v1.9c0,0.3-0.2,0.7-0.7,0.7l0,0c-0.3,0-0.7-0.2-0.7-0.7v-1.9c0-0.3,0.2-0.7,0.7-0.7l0,0
	C787.2,262.2,787.5,262.6,787.5,262.9z"/>
<path class="st13" d="M785.9,263.2h1.9c0.3,0,0.7,0.2,0.7,0.7l0,0c0,0.3-0.2,0.7-0.7,0.7h-1.9c-0.3,0-0.7-0.2-0.7-0.7l0,0
	C785.2,263.5,785.6,263.2,785.9,263.2z"/>
<polyline class="st14" points="781.9,273.9 781.9,260.3 791.9,260.3 791.9,273.9 "/>
<g>
	<line class="st14" x1="784.7" y1="267.8" x2="785.7" y2="267.8"/>
	<line class="st14" x1="788" y1="267.8" x2="789" y2="267.8"/>
</g>
<g>
	<line class="st14" x1="784.7" y1="270" x2="785.7" y2="270"/>
	<line class="st14" x1="788" y1="270" x2="789" y2="270"/>
</g>
<circle class="st1" cx="790.6" cy="357.9" r="17.5"/>
<path class="st15" d="M798.1,364.8h-14.6c-1,0-1.8-0.8-1.8-1.8v-9.7c0-1,0.8-1.8,1.8-1.8h14.6c1,0,1.8,0.8,1.8,1.8v9.7
	C799.9,364.1,799.1,364.8,798.1,364.8z"/>
<path class="st15" d="M782.7,353l6.9,6.9c0.7,0.7,1.8,0.7,2.5,0l6.9-6.9"/>
<path class="st0" d="M536.9,450H301.3c-4.8,0-8.8-3.9-8.8-8.8V8.8c0-4.8,3.9-8.8,8.8-8.8h235.6c4.8,0,8.8,3.9,8.8,8.8v432.4
	C545.6,446.1,541.7,450,536.9,450z"/>
<polygon class="st1" points="411.5,409.7 411.5,418.4 419.1,422.8 426.6,418.4 426.6,409.7 419.1,405.3 "/>
<path class="st2" d="M420.1,409.7c0.9,0,1.6,0.2,2.1,0.7c0.4,0.4,0.8,1,0.8,1.7c0,0.8-0.3,1.4-1.1,1.7l0,0c0.4,0.2,0.8,0.4,1,0.8
	c0.2,0.3,0.3,0.8,0.3,1.2c0,0.8-0.2,1.5-0.8,1.9c-0.6,0.4-1.2,0.7-2.1,0.7h-4.7v-8.7L420.1,409.7L420.1,409.7z M417.8,413.2h1.7
	c0.3,0,0.6-0.1,0.8-0.2c0.2-0.1,0.2-0.3,0.2-0.7s-0.1-0.6-0.2-0.7c-0.2-0.1-0.5-0.2-0.8-0.2h-1.7V413.2z M420.6,416.5
	c0.2-0.2,0.3-0.4,0.3-0.7c0-0.3-0.1-0.6-0.3-0.7c-0.2-0.2-0.4-0.2-0.8-0.2h-1.9v1.9h1.9C420.1,416.7,420.4,416.6,420.6,416.5z"/>
<path class="st2" d="M515.6,215.4H325c-5.5,0-10-4.5-10-10v-91.2c0-5.5,4.5-10,10-10h190.6c5.5,0,10,4.5,10,10v91.2
	C525.6,211.1,521.1,215.4,515.6,215.4z"/>
<g>
	<text transform="matrix(1 0 0 1 338.1997 71.6992)" class="st4 st5 st6">Nursing and Midwifery </text>
	<text transform="matrix(1 0 0 1 338.1997 81.8242)" class="st4 st5 st6">Council (NMC)</text>
	<text transform="matrix(1 0 0 1 338.1997 132.4492)" class="st4 st5 st6">Kings College </text>
	<text transform="matrix(1 0 0 1 338.1997 142.5742)" class="st4 st5 st6">Nursing School</text>
	<text transform="matrix(1 0 0 1 338.1997 159.2246)" class="st4 st5 st8">contact description</text>
	<text transform="matrix(1 0 0 1 338.1997 168.3369)" class="st4 st5 st6">office@kingscollege.co.uk</text>
	<text transform="matrix(1 0 0 1 338.1997 184.8745)" class="st4 st5 st8">contact name</text>
	<text transform="matrix(1 0 0 1 338.1997 198.2617)" class="st4 st5 st9">0123 456789</text>
	<text transform="matrix(1 0 0 1 338.1997 247.7617)" class="st4 st5 st6">Milton Keynes</text>
	<text transform="matrix(1 0 0 1 338.1997 257.8867)" class="st4 st5 st6">Hospital Trust</text>
	<text transform="matrix(1 0 0 1 338.1997 288.2617)" class="st4 st5 st6">RealCare+</text>
	<text transform="matrix(1 0 0 1 338.1997 298.3867)" class="st4 st5 st6">NHS Locum</text>
</g>
<circle class="st16" cx="419.1" cy="330.1" r="14.1"/>
<line class="st16" x1="412" y1="330.1" x2="426" y2="330.1"/>
<line class="st16" x1="419.1" y1="337.1" x2="419.1" y2="323"/>
<circle class="st1" cx="503.7" cy="71.8" r="10.6"/>
<path class="st17" d="M507.9,76.2h-8.2c-0.8,0-1.4-0.7-1.4-1.3v-5.2c0-0.8,0.7-1.4,1.4-1.4h8.2c0.8,0,1.4,0.7,1.4,1.4v5.2
	C509.4,75.5,508.7,76.2,507.9,76.2z"/>
<path class="st17" d="M498.9,69l3.9,3.9c0.6,0.6,1.5,0.6,2,0l3.9-3.9"/>
<circle class="st10" cx="479.2" cy="71.8" r="10.6"/>
<path class="st17" d="M480.8,72c1.4,0,1.1,1.1,1.1,1.5c0,0.5,3.6,0.8,4.2-0.1c0-0.6,0-1.2,0-1.2c0-1-0.7-1.7-1.9-1.9
	c-3.1-0.4-7.2-0.6-10.1,0c-1.1,0.2-1.9,0.8-1.9,1.9c0,0,0,0.7,0,1.2c0.8,1,4.2,0.6,4.2,0.2c0-0.5-0.2-1.5,1.1-1.5h3.4V72z"/>
<circle class="st1" cx="504.4" cy="162.9" r="12.3"/>
<path class="st17" d="M508.7,167.5h-8.1c-1,0-1.8-0.8-1.8-1.8v-4.9c0-1,0.8-1.8,1.8-1.8h8.1c1,0,1.8,0.8,1.8,1.8v4.9
	C510.5,166.7,509.7,167.5,508.7,167.5z"/>
<path class="st17" d="M499.5,159.9l4.4,4.4c0.5,0.4,1.1,0.4,1.6,0l4.4-4.4"/>
<circle class="st10" cx="504.7" cy="193.5" r="10.6"/>
<path class="st17" d="M506.5,193.5c1.5,0,1.2,1.2,1.2,1.6c0,0.4,3.8,0.8,4.5-0.1c0-0.6,0-1.4,0-1.4c0-1.1-0.8-1.8-2-2
	c-3.4-0.4-7.8-0.6-10.9,0c-1.2,0.2-2,0.9-2,2c0,0,0,0.7,0,1.2c0.8,1,4.5,0.7,4.5,0.2c0-0.4-0.2-1.6,1.2-1.6H506.5z"/>
<circle class="st18" cx="454.7" cy="71.8" r="10.6"/>
<path class="st19" d="M459,76.7c0-1.3-1.1-2.4-2.4-2.4h-3.7c-1.4,0-2.4,1.1-2.4,2.4"/>
<path class="st19" d="M454.7,73L454.7,73c-1.4,0-2.5-1.1-2.5-2.5v-1c0-1.4,1.1-2.5,2.5-2.5l0,0c1.4,0,2.5,1.1,2.5,2.5v1
	C457.3,71.9,456.2,73,454.7,73z"/>
<circle class="st1" cx="504.2" cy="247.3" r="12.3"/>
<path class="st17" d="M508.5,251.9h-8.1c-1,0-1.8-0.8-1.8-1.8v-4.9c0-1,0.8-1.8,1.8-1.8h8.1c1,0,1.8,0.8,1.8,1.8v4.9
	C510.3,251.1,509.5,251.9,508.5,251.9z"/>
<path class="st17" d="M499.3,244.2l4.4,4.4c0.5,0.4,1.1,0.4,1.6,0l4.4-4.4"/>
<circle class="st18" cx="477.8" cy="247.4" r="10.6"/>
<g>
	<path class="st17" d="M482.1,252.3c0-1.4-1.1-2.5-2.5-2.5h-3.7c-1.4,0-2.5,1.1-2.5,2.5"/>
	<path class="st17" d="M477.8,248.6L477.8,248.6c-1.4,0-2.6-1.1-2.6-2.6v-1.1c0-1.3,1.1-2.6,2.6-2.6l0,0c1.4,0,2.6,1.1,2.6,2.6v1.1
		C480.3,247.4,479.1,248.6,477.8,248.6z"/>
</g>
<circle class="st1" cx="504.2" cy="289" r="12.3"/>
<path class="st17" d="M508.5,293.5h-8.1c-1,0-1.8-0.8-1.8-1.8v-5c0-1,0.8-1.8,1.8-1.8h8.1c1,0,1.8,0.8,1.8,1.8v5
	C510.3,292.7,509.5,293.5,508.5,293.5z"/>
<path class="st17" d="M499.3,286l4.4,4.4c0.5,0.4,1.1,0.4,1.6,0l4.4-4.4"/>
<circle class="st10" cx="478.5" cy="289" r="10.6"/>
<path class="st17" d="M480.3,289c1.5,0,1.2,1.2,1.2,1.6c0,0.4,3.8,0.8,4.5-0.1c0-0.6,0-1.4,0-1.4c0-1.1-0.8-1.8-2-2
	c-3.4-0.5-7.8-0.6-10.9,0c-1.2,0.2-2,0.9-2,2c0,0,0,0.7,0,1.2c0.8,1,4.5,0.7,4.5,0.2c0-0.5-0.2-1.6,1.2-1.6H480.3z"/>
</svg>
