<?xml version="1.0" encoding="utf-8"?>
<!-- Generator: Adobe Illustrator 23.0.3, SVG Export Plug-In . SVG Version: 6.00 Build 0)  -->
<svg version="1.1" id="Layer_1" xmlns="http://www.w3.org/2000/svg" xmlns:xlink="http://www.w3.org/1999/xlink" x="0px" y="0px"
	 viewBox="0 0 105 30" style="enable-background:new 0 0 105 30;" xml:space="preserve">
<style type="text/css">
	.st0{fill:#1FB2FF;}
	.st1{fill:#FFFFFF;}
	.st2{fill:#545B66;}
</style>
<polygon class="st0" points="13,0 0,7.5 0,22.5 13,30 26,22.5 26,7.5 "/>
<path class="st1" d="M18.8,21.3c-0.9,0.8-2.1,1.2-3.7,1.2H7v-15h7.9c1.5,0,2.7,0.4,3.6,1.1c0.9,0.7,1.3,1.7,1.3,2.9
	c0,1.3-0.6,2.3-1.9,2.9v0.1c0.7,0.3,1.3,0.8,1.8,1.3c0.4,0.6,0.7,1.3,0.7,2.1C20.2,19.4,19.7,20.5,18.8,21.3z"/>
<path class="st0" d="M15.3,13.1c0.3-0.3,0.5-0.7,0.5-1.1c0-0.5-0.2-0.9-0.5-1.2c-0.3-0.3-0.8-0.4-1.3-0.4h-3v3.1h3
	C14.5,13.5,15,13.4,15.3,13.1z"/>
<path class="st2" d="M40.8,7.5c1.5,0,2.7,0.4,3.6,1.1c0.9,0.7,1.3,1.7,1.3,2.9c0,1.3-0.6,2.3-1.9,2.9v0.1c0.7,0.3,1.3,0.8,1.8,1.3
	c0.4,0.6,0.6,1.3,0.6,2.1c0,1.4-0.4,2.5-1.3,3.3c-0.9,0.8-2.1,1.2-3.7,1.2h-8.2v-15H40.8z M36.9,13.6h3c0.6,0,1-0.1,1.3-0.4
	c0.3-0.3,0.5-0.7,0.5-1.1s-0.2-0.9-0.5-1.2c-0.3-0.3-0.8-0.4-1.3-0.4h-3V13.6z M41.6,19.1c0.3-0.3,0.5-0.7,0.5-1.2
	c0-0.5-0.2-0.9-0.5-1.2c-0.3-0.3-0.8-0.4-1.4-0.4h-3.3v3.3h3.3C40.8,19.5,41.3,19.3,41.6,19.1z"/>
<path class="st2" d="M58.3,20.1c-0.1,0.3-0.4,0.7-0.6,1c-0.3,0.3-0.6,0.6-1.1,0.8c-0.4,0.2-0.9,0.4-1.6,0.6
	c-0.6,0.1-1.3,0.2-2.1,0.2c-1.9,0-3.3-0.5-4.4-1.5c-1-1-1.6-2.5-1.6-4.3c0-1.8,0.5-3.3,1.5-4.3c1-1,2.5-1.6,4.3-1.6
	c1.8,0,3.2,0.5,4.3,1.5c1,1,1.6,2.5,1.6,4.4c0,0.3,0,0.5,0,0.7h-7.9c0,0.9,0.2,1.5,0.5,2s0.9,0.7,1.6,0.7c1.1,0,1.7-0.4,1.9-1.3h3.7
	C58.6,19.4,58.5,19.8,58.3,20.1z M51.5,14c-0.4,0.4-0.6,0.9-0.6,1.5h4c0-0.6-0.2-1.1-0.6-1.5c-0.4-0.4-0.8-0.6-1.4-0.6
	C52.3,13.4,51.8,13.6,51.5,14z"/>
<path class="st2" d="M63.4,11.4v1.7h0.1c0.6-1.3,1.7-2,3.4-2c0.2,0,0.4,0,0.6,0.1v3.7c-0.4,0-0.7-0.1-0.9-0.1c-0.4,0-0.8,0-1.1,0.1
	c-0.3,0.1-0.7,0.3-0.9,0.5c-0.3,0.2-0.5,0.5-0.7,0.9c-0.2,0.4-0.3,0.8-0.3,1.3v4.8h-3.7V11.4H63.4z"/>
<path class="st2" d="M76,19.7v2.7c-0.2,0-1,0-2.3,0c-0.7,0-1.2,0-1.7-0.1c-0.4-0.1-0.8-0.2-1.1-0.4c-0.3-0.2-0.5-0.5-0.7-0.9
	c-0.1-0.4-0.2-0.9-0.2-1.5v-5.9h-1.7v-2.3h1.7V8.3h3.7v3.1h2.2v2.3h-2.2v5c0,0.5,0.1,0.7,0.3,0.9c0.2,0.1,0.5,0.2,1.1,0.2
	C75.6,19.8,75.9,19.8,76,19.7z"/>
<rect x="77.8" y="7.3" class="st2" width="3.7" height="2.7"/>
<rect x="77.8" y="11.4" class="st2" width="3.7" height="11.1"/>
<path class="st2" d="M88.6,9.9c-0.2,0.2-0.3,0.5-0.3,0.9v0.6h2.2v2.3h-2.2v8.8h-3.7v-8.8h-1.7v-2.3h1.7v-1.1c0-0.5,0.1-1,0.2-1.4
	c0.1-0.4,0.3-0.7,0.6-0.9c0.2-0.2,0.6-0.4,0.9-0.6c0.4-0.1,0.8-0.2,1.2-0.3C87.9,7.1,88.4,7,88.9,7c0.5,0,1.1,0,1.9,0.1v2.5
	c-0.5,0-0.8-0.1-1.2-0.1C89.2,9.7,88.9,9.7,88.6,9.9z"/>
<path class="st2" d="M103.4,11.4l-4.3,11.3c-0.3,0.7-0.5,1.3-0.8,1.8c-0.3,0.5-0.6,0.9-0.9,1.2c-0.3,0.3-0.6,0.5-1,0.7
	c-0.4,0.2-0.7,0.3-1.1,0.3c-0.3,0-0.7,0.1-1.2,0.1h-2v-3h1.3c0.5,0,0.9-0.1,1.1-0.2s0.4-0.5,0.6-0.9l0.1-0.3L91,11.4h4.1l1.3,3.9
	c0.1,0.4,0.3,0.9,0.4,1.4c0.1,0.5,0.3,0.9,0.3,1.2l0.1,0.5h0.1c0.3-1.1,0.5-2.1,0.8-3.1l1.3-3.9H103.4z"/>
<path class="st0" d="M14.2,16.1h-3.3v3.3h3.3c0.6,0,1.1-0.1,1.4-0.4c0.3-0.3,0.5-0.7,0.5-1.2c0-0.5-0.2-0.9-0.5-1.2
	C15.3,16.3,14.8,16.1,14.2,16.1z"/>
</svg>
