<?xml version="1.0" encoding="utf-8"?>
<!-- Generator: Adobe Illustrator 23.0.3, SVG Export Plug-In . SVG Version: 6.00 Build 0)  -->
<svg version="1.1" id="Layer_1" xmlns="http://www.w3.org/2000/svg" xmlns:xlink="http://www.w3.org/1999/xlink" x="0px" y="0px"
	 viewBox="0 0 80 100" style="enable-background:new 0 0 80 100;" xml:space="preserve">
<style type="text/css">
	.st0{fill:#00A4FF;}
	.st1{fill:#FFFFFF;}
	.st2{fill:#7BDDFF;}
	.st3{fill:#0080FF;}
</style>
<path class="st0" d="M47.7,0L13.5,0C7.1,0,2,5.1,2,11.5v77.1C2,94.9,7.1,100,13.5,100h53c6.3,0,11.5-5.1,11.5-11.5V29.6L47.7,0z"/>
<path class="st1" d="M68.4,69.8c1.6-0.9,2.6-2.9,2.1-4.8c-0.4-1.9-2.1-3.3-4-3.4c1.1-1.6,1-3.7-0.2-5.3c-1.2-1.6-3.3-2.1-5.1-1.4
	c0.3-1.9-0.7-3.8-2.5-4.7c-1.8-0.9-3.9-0.4-5.2,1c-0.6-1.8-2.2-3.1-4.2-3.1c-2,0-3.7,1.3-4.2,3.1c-1.3-1.4-3.4-1.8-5.2-1
	c-1.8,0.9-2.8,2.8-2.5,4.7c-1.8-0.7-3.9-0.2-5.1,1.4C31,57.8,31,60,32.1,61.5c-1.9,0.1-3.6,1.5-4,3.4c-0.4,1.9,0.5,3.9,2.1,4.8
	c-1.6,0.9-2.6,2.9-2.1,4.8c0.4,1.9,2.1,3.3,4,3.4c-1.1,1.6-1,3.7,0.2,5.3c0.9,1.1,2.2,1.7,3.5,1.7c0.5,0,1.1-0.1,1.6-0.3
	c-0.3,1.9,0.7,3.8,2.5,4.7c0.6,0.3,1.3,0.4,1.9,0.4c1.2,0,2.4-0.5,3.3-1.4c0.6,1.8,2.2,3.1,4.2,3.1c2,0,3.7-1.3,4.2-3.1
	c0.8,0.9,2,1.4,3.3,1.4c0.6,0,1.3-0.1,1.9-0.4c1.8-0.9,2.8-2.8,2.5-4.7c0.5,0.2,1.1,0.3,1.6,0.3c1.3,0,2.6-0.6,3.5-1.7
	c1.2-1.6,1.3-3.7,0.2-5.3c1.9-0.1,3.6-1.5,4-3.4C70.9,72.7,70,70.8,68.4,69.8z"/>
<ellipse transform="matrix(0.1442 -0.9896 0.9896 0.1442 -26.9128 108.5267)" class="st2" cx="49.3" cy="69.8" rx="15.4" ry="15.4"/>
<path class="st3" d="M59.1,29.6H78L47.7,0v18.2C47.7,24.5,52.8,29.6,59.1,29.6z"/>
</svg>
