<?xml version="1.0" encoding="utf-8"?>
<!-- Generator: Adobe Illustrator 23.0.3, SVG Export Plug-In . SVG Version: 6.00 Build 0)  -->
<svg version="1.1" id="Layer_1" xmlns="http://www.w3.org/2000/svg" xmlns:xlink="http://www.w3.org/1999/xlink" x="0px" y="0px"
	 viewBox="0 0 800 500" style="enable-background:new 0 0 800 500;" xml:space="preserve">
<style type="text/css">
	.st0{fill:#EAEAEA;}
	.st1{fill:#FFFFFF;}
	.st2{fill:#F2F2F2;}
	.st3{fill:#22B9FC;}
	.st4{fill:#22A7FF;}
	.st5{fill:#22C9FF;}
	.st6{fill:#BA8454;}
	.st7{fill:#AA6933;}
	.st8{fill:#C69763;}
	.st9{fill:none;stroke:#C69763;stroke-width:0.8948;stroke-linecap:round;stroke-linejoin:round;stroke-miterlimit:10;}
	.st10{fill:none;stroke:#D69680;stroke-width:0.8948;stroke-linecap:round;stroke-linejoin:round;stroke-miterlimit:10;}
	.st11{fill:#EDB39A;}
	.st12{fill:none;stroke:#FFFFFF;stroke-width:0.8948;stroke-linecap:round;stroke-linejoin:round;stroke-miterlimit:10;}
	.st13{fill:#0A387C;}
	.st14{fill:none;stroke:#0A387C;stroke-width:0.8948;stroke-linecap:round;stroke-linejoin:round;stroke-miterlimit:10;}
	.st15{fill:#089FEE;}
	.st16{fill:#0286DA;}
	.st17{fill:#1694D3;}
	.st18{fill:none;stroke:#29A9E1;stroke-width:0.8948;stroke-linecap:round;stroke-linejoin:round;stroke-miterlimit:10;}
	.st19{fill:none;stroke:#1582CC;stroke-width:0.8948;stroke-linecap:round;stroke-linejoin:round;stroke-miterlimit:10;}
	.st20{fill:none;stroke:#FFFFFF;stroke-width:0.8557;stroke-linecap:round;stroke-linejoin:round;stroke-miterlimit:10;}
	.st21{fill:none;stroke:#494949;stroke-width:0.8557;stroke-linecap:round;stroke-linejoin:round;stroke-miterlimit:10;}
	.st22{fill:#383838;}
	.st23{fill:#494949;}
	.st24{fill:none;stroke:#D69985;stroke-width:0.8557;stroke-linecap:round;stroke-linejoin:round;stroke-miterlimit:10;}
	.st25{fill:none;stroke:#1582CC;stroke-width:0.8557;stroke-linecap:round;stroke-linejoin:round;stroke-miterlimit:10;}
	.st26{fill:none;stroke:#FFFFFF;stroke-width:1.0885;stroke-linecap:round;stroke-linejoin:round;stroke-miterlimit:10;}
	.st27{fill:#F2F4F7;}
	.st28{fill:#ECEFF7;}
</style>
<path class="st0" d="M554.6,395.7c0.7,15.6,2.7,22,8.7,26.2h0c0.7,0.5,1.4,1,2.3,1.4v0.7h10.3v-2.9c0.8-0.2,1.5-0.5,2.2-0.8v3.7
	h183.2v-3.2c0.5,0.2,1.1,0.3,1.7,0.4v2.8h10.3v-5.3c1.1-1.2,2.2-4.9,3.6-16.3c2.7-1.9,4.2-8.6,4.6-17.8c0-0.8,0.1-1.6,0.1-2.4
	c0-2.4,0-5-0.1-7.6c-0.1-3.1-0.4-5.8-0.9-8.1c-0.1-0.3-0.1-0.7-0.2-1c-0.4-1.6-0.9-3-1.5-4.3c-0.4-0.8-0.8-1.5-1.2-2.3
	c-0.3-0.5-0.6-0.9-1-1.4c-2.4-3.2-6-5.9-11.1-9.3c-0.5-0.3-1-0.6-1.5-0.9s-1.2-0.5-1.8-0.8c-0.4-11.8,0.5-21.9,0.6-38.3
	c0-1.9,0-3.8,0-5.9c-37.3-13.4-142.5-7.4-192.8,2.1c-6.2,17.1-4.6,43.1-3.1,58.1C560.5,368.1,554,381.6,554.6,395.7z"/>
<path class="st0" d="M510.1,249.4h-10l-4.5-15.6c-0.3-1.2-1.4-2-2.6-2h-82.5c-0.7-10.4-0.4-23.1-6.2-41.7c0,0-6-5.3-18.7-9.2
	c-8.7-2.6-13.8-6.6-26.8-12.6c-4.1-1.9-7.2-3.1-9.7-4c-0.1-7.1,0.2-17.8,0.4-21.8c2.5-3.7,5-8.1,5.8-9.6c0.6-1.1,1.5-4,2.3-6.8
	c2.1,0,4-0.9,5.6-2.4c1.6-1.5,3-3.5,4.1-5.8c0,0,0,0,0,0c3.6-7.3,4.9-17.4,4-21.3c-1.5-6.3-4.2-7.2-3.8-14.7
	c0.5-10.2-1.7-14.6-4.4-17.1c0,0,0,0,0,0c0.4-2.4-1.2-7.2-6-8.5c-3.4-1-7.7-0.2-11.8,0.1h0c0,0,0,0,0,0c-3.3,0-5.8-6.1-19.8-3.8
	c-14,2.3-20.9,11.7-22.3,14.2c-1.4,2.5-0.4,4.9-4.8,9.8c-1.2,1.3-2.2,2.7-3.1,4.4c-1.3,2.6-2.2,5.8-2.3,10.5
	c-0.1,3.6,0.4,8.1,1.4,13.7c-0.6,0.9-1.2,1.9-1.9,3c-3.6,5.6-1.8,11.6,1.8,16c0.2,0.3,0.4,0.5,0.7,0.8c0.3,0.4,0.7,0.7,1.1,1.1
	c0.2,0.2,0.5,0.4,0.7,0.6c2.9,2.5,6.2,4.1,9,4.2c0.4,0,0.7,0,1.1,0.1c1,0.1,2,0.2,2.9,0.4c0.8,0.2,1.5,0.4,2.2,0.6
	c0.7,1.9,1.4,3.6,1.5,4.4c0.5,3.4,2.5,17.7,0.9,27.4h0c-2.1,0.7-3.8,1.7-4.6,3.2c0,0,0,0,0,0c-1.6,2.4-4.2,5.3-8.4,6.9
	c-4.4,1.7-5.3,1.6-11.4,5.9c-6.1,4.3-15.2,7-20.8,8.7c-5.6,1.7-9.4,11.4-11.2,23.9c-1.8,12.5-2.3,17.5-6.1,26.3
	c-3.6,8.4-6.5,19.6-8.1,28.4c-0.1,0.5-0.2,1-0.3,1.4c-0.2,1.3-0.1,1.7-0.1,1.7s0.8,1.5,3.3,3.2c1.5,1.1,3.8,2.4,6.8,3.5
	c-0.6,7-4.7,25.3-6.4,31.2c-1.7,6-6.6,13.6-3.5,39c3.1,25.3,7.3,37.3,8.8,51.9c1.7,15.7,8.7,16.5,11.7,20.3c0.9,1.1,2,2.7,3.1,4.5
	h105.9h30.8h113.4V256.3C516.9,252.5,513.8,249.4,510.1,249.4z M280.8,330.2c-0.4,8.9-4.8,48.8-4.3,62.8c0.5,0.5,1.1,1,1.8,1.5
	c-0.1,1.3-0.6,4.4-1.3,7.8c-0.6-0.2-1.2-0.4-1.7-0.5c-1.6-0.5-3.8-3.5-4.9-6.4s-1.1-6.4-1.4-10.9c-1.4-19.4,6.7-31.6,6.5-44.2
	c-0.2-12.6-3.3-20.6-3-23.9c0.3-3.3,5.1-10.5,6-15.1C277.4,311.8,281.1,322.3,280.8,330.2z M413.9,249.4c-1.1-3.8-2.1-7.5-2.7-10.8
	h78c1.1,0,2.1,0.8,2.4,2l2.4,8.9H413.9z"/>
<path class="st0" d="M54.4,337.1c-0.8,2-2,7.8,0,12.1c2,4.4,3.4,7.6,3.8,8.9c0.4,1.3,1.7,3.7,7.5,3.3c5.8-0.4,11.4-0.4,20.6-3.3
	c1.3-0.4,2.8-0.9,4.5-1.6c-0.1,0.3-0.1,0.7-0.2,1c-0.1,0.8-0.3,1.5-0.4,2.3c-0.2,1.1-0.4,2.3-0.6,3.4c-0.2,1-0.4,1.9-0.6,2.9
	c-0.2,0.8-0.4,1.6-0.6,2.4c-0.4,1.5-0.7,2.9-1.2,4.4c-0.3,1-0.6,2-0.9,3v0c-0.7,2.3-1.6,4.6-2.5,6.9c-5.1,12.3-6.7,32.7-7.2,41.1
	h102.6c-0.2-8-1.1-19.9-1-26.7c0.2-8.6-0.2-26.4,0.5-39.7c0.9,0.2,1.8,0.3,2.6,0.4c4.3,0.5,8.1-1.9,10.9-4c4.4-3.3,9-3.5,12.6-8
	c3.6-4.5,6.6-10.3,4.3-18.8h0l8.8-8.3l-1-3.6l-8.3-0.1c-1-2.7-3.5-9.4-7.2-19.2c-4.9-13.2-5.8-29.9-11.3-37.5
	c-6.6-6.3-15.9-8.8-20.6-10.7c-4.7-1.9-12.5-8.9-15.6-11.5c0,0,0,0-0.1-0.1c-0.9-0.9-1.9-1.6-2.9-2.1c0.1-0.6,0.3-1.2,0.4-1.8
	c3.1,0.4,6.4,0.1,7.4-0.6c1.3-0.9,16.2-20.8,17.1-23.9c0.3-0.9,0.5-2,0.6-3.3v0c3.8-4.5,10.7-17.5,11-25.1
	c0.4-7.6-3.2-18.1-3.9-21.9c-0.7-3.9-7.3-19.5-23.7-22.7c-0.7-0.1-1.4-0.3-2.1-0.4c-14.8-2.6-20.6,0.4-21.1,3.2
	c-4.5-0.6-12.6-0.6-20.8,11.5c-0.7,1.1-1.3,2.2-1.9,3.3c0,0.1-0.1,0.2-0.1,0.3c-0.4,0.8-0.7,1.7-1,2.6c-0.2,0.6-0.3,1.1-0.5,1.7
	c-0.2,0.9-0.4,1.7-0.5,2.6c-0.2,1.1-0.3,2.1-0.3,3.2c0,0.1,0,0.1,0,0.2c-0.2,4.9,0.5,10,1.2,15.3c0.1,0.7,0.1,1.3,0.2,1.9
	c0.1,2.1-0.4,3.7-1,5.2c-0.2,0.4-0.4,0.8-0.6,1.2c-2.4,4.2-6.4,7.2-6.3,15.3c0.1,6.9,3,11.2,5.5,13.6c0.8,0.8,1.6,1.4,2.3,1.9
	c0.4,0.3,0.8,0.5,1,0.6s0.4,0.2,0.4,0.2s0.2,0.1,0.4,0.2c0.2,0.1,0.4,0.1,0.7,0.2c0.3,0.1,0.6,0.2,0.9,0.3c1.5,0.5,3.5,1.1,4.7,1.4
	c-0.9,3.9-2,8-3.5,11.7c-3.1-0.2-6.5,3.1-9.7,6.8c-4.5,5.1-17.4,12.6-25.9,15.4c-5.8,4.4-7.7,5.7-12.3,19.9
	c-4.6,14.1-13.2,34-16.6,39.1c2,1.7,4.2,3.4,6.8,5C58.6,322.7,55.2,335.1,54.4,337.1z M85.2,326.1c1.6,0.1,3.2,0.2,4.8,0.3
	c1.1,0,2.2,0.1,3.7-0.1c-0.1,2.3-0.2,4.5-0.3,6.5c-2.1-0.4-4.3-0.8-6.7-1.1c-1.2-0.1-2.3-0.2-3.4-0.2
	C83.4,331.3,84.7,328.2,85.2,326.1z"/>
<path class="st1" d="M469,435.7H338.5c-3.8,0-6.8-3-6.8-6.8V246.4c0-3.8,3-6.8,6.8-6.8H469c3.8,0,6.8,3,6.8,6.8v182.6
	C475.8,432.7,472.7,435.7,469,435.7z"/>
<path class="st2" d="M378.2,418l-7.1-34.6c0.5-0.3,0.9-0.6,1.2-0.8c2.7-1.8,4-7.3,6.1-12.1c2.1-4.8,1.3-11.2,1.4-13.2
	c0.2-2.1,6.7-21.4,8.1-32.9s-1.9-20-3.5-28.1s1.8-21.2,0.7-26.4v0c1.1-0.9,2-1.9,2.8-3c6.4-8.7,6.4-8.7,6.4-8.7s-3.6-9.1-6.5-18.5
	h-32.4l2.4-8.9c0.3-1.2,1.3-2,2.4-2h24.9c-0.2-0.9-0.3-1.8-0.4-2.6c-0.2-1.4-0.3-2.8-0.4-4.2h-27.9c-1.2,0-2.3,0.8-2.6,2l-4.5,15.6
	h-10.9c-3.8,0-6.8,3-6.8,6.8v182.6c0,3.8,3,6.8,6.8,6.8h22.9L378.2,418z M356.8,315.3h-2.5c-0.1-10.3,0.9-22,1.9-31.3
	c0.6,8.7,2.8,23.3,3.4,27.2c0.4,2.3-0.4,7.9-0.7,14.7L356.8,315.3z"/>
<rect x="336.7" y="372.7" class="st3" width="133.4" height="51.3"/>
<rect x="336.7" y="318.7" class="st3" width="133.4" height="51.3"/>
<rect x="336.7" y="264.8" class="st3" width="133.4" height="51.3"/>
<path class="st4" d="M388.3,319h81.7v-2.9h-65.2v-51.3h-2.9v51.3h-13.7c-0.3-4.8-1.2-9.1-2.2-13.2h1c3.1,0,5.6-2.5,5.6-5.6v-5.2
	h-8.6c-0.3-7.9,2-18,1.1-22.4v0c1.1-0.9,2-1.9,2.8-3c0.5-0.7,1-1.4,1.5-2h-52.8v51.3l0,0v2.9l0,0v51l0,0v2.9l0,0v51h35.8l5.7-6
	l-1.9-9.1h78.2c3.1,0,5.6-2.5,5.6-5.6v-5.2h-86l-3-14.7c0.5-0.3,0.9-0.6,1.2-0.8c2.2-1.4,3.5-5.5,5-9.6h92.7V370h-91.5
	c1.9-4.7,1.1-10.9,1.3-12.9c0-0.3,0.2-1.1,0.5-2.3h74.2c3.1,0,5.6-2.5,5.6-5.6v-5.2h-76.7c1.8-6.5,3.8-14.2,4.5-19.9
	C388.2,322.4,388.3,320.7,388.3,319z"/>
<path class="st1" d="M459.7,242.1l-5.3-18.1c-0.3-1.2-1.4-2-2.6-2h-95.2c-1.2,0-2.3,0.8-2.6,2l-5.3,18.1c-0.5,1.7,0.8,3.5,2.6,3.5
	h2.6l4-14.9c0.3-1.2,1.3-2,2.4-2h87.8c1.1,0,2.1,0.8,2.4,2l4,14.9h2.6C458.9,245.6,460.2,243.8,459.7,242.1z"/>
<path class="st4" d="M454.2,302.9h-35.3c-3.1,0-5.6-2.5-5.6-5.6v-5.2h46.5v5.2C459.8,300.4,457.3,302.9,454.2,302.9z"/>
<path class="st5" d="M454.2,297.5h-35.3c-3.1,0-5.6-2.5-5.6-5.6v-5.2h46.5v5.2C459.8,295,457.3,297.5,454.2,297.5z"/>
<path class="st6" d="M321.3,74.5c-1.5-6.3-4.2-7.2-3.8-14.7c0.5-10.2-1.7-14.6-4.4-17.1c0.4-2.4-1.2-7.2-6-8.5
	c-3.4-1-7.7-0.2-11.8,0.1h0c-3.3,0-5.8-6.1-19.8-3.8c-14,2.3-20.9,11.7-22.3,14.2c-1.4,2.5-0.4,4.9-4.8,9.8
	c-1.2,1.3-2.2,2.7-3.1,4.4c-2.4,4.6-3.3,11.3-0.9,24.2c-0.6,0.9-1.2,1.9-1.9,3c-6.8,10.5,5.4,22.5,13.2,22.7c2.3,0,4.3,0.5,6.2,1.1
	c-1.1-2.9-2.5-6.2-2.7-7.3c-0.4-1.9-1.7-2-1.7-2c-1.1,0.4-5.4,0.9-6.8-3.9c-1.3-4.8-0.4-10.6,0-11.7c0.4-1.1,0.4-5.4,1.6-6.3
	c0.7-0.5,1.3-0.3,1.9,0.3c0.6-0.6,1,0.4,1.4,2c0.8,3.2,1.4,8.9,2.2,10.8c0.9-0.3,1.6-2.1,1.6-2.1s-0.9-3.1-1.6-8.9
	c-0.6-5.8,2.1-6.2,2.1-6.2s0.2-3.6,1.1-5.9c6.2-1.5,12.8-8.5,17.6-8.7c1.6-0.1,6.3-0.4,12.6-1.1c9.9-1,12.8-4.8,14-7.9
	c0,0-2.8,12.3,2.8,17.2c0.7,0.7,1.4,1.3,2.1,1.8c0.3,4.4-2,15.9-2.2,19.6c1.2-1.3,2.5-6,3.8-8.6c0,0,0,0,0,0c0.3-2.1,2.7-5.4,3.9,0
	c1.2,5.4,0.3,8.9,0,10.7c-0.5,2.7-3.4,9.5-6.2,5.4c0,0-0.8,3.4-1.8,6.9c4.2,0,7.4-3.5,9.7-8.2c0,0,0,0,0,0
	C320.9,88.4,322.2,78.3,321.3,74.5z"/>
<path class="st7" d="M317.3,95.7C317.3,95.8,317.3,95.8,317.3,95.7c-2.3,4.7-5.5,8.2-9.7,8.2c1-3.5,1.8-6.9,1.8-6.9
	c2.8,4.1,5.7-2.7,6.2-5.4c0.3-1.8,1.2-5.3,0-10.7c-1.2-5.4-3.6-2.1-3.9,0c0,0,0,0,0,0c-1.3,2.6-2.6,7.3-3.8,8.6
	c0.2-3.7,2.5-15.2,2.2-19.6c4.3,3.8,6.5,6.1,7.4,9.2C318.4,82.5,318.6,90.5,317.3,95.7z"/>
<path class="st8" d="M250.5,68.8c-0.7,4.4-2.3,8.1-6.1,14.2c-2.4-12.8-1.5-19.6,0.9-24.2c-0.1,1.4,0,3,0.1,4.5
	C245.8,66.4,247.8,68.1,250.5,68.8z"/>
<path class="st7" d="M261.8,109.8c-1.8-0.6-3.9-1.1-6.2-1.1c-7.8-0.1-19.9-12.2-13.2-22.7c0.7-1.1,1.3-2.1,1.9-3
	c3.8-6.1,5.4-9.9,6.1-14.2c3.1,0.9,7.1,0.5,10.5-0.2c-0.9,2.3-1.1,5.9-1.1,5.9s-2.7,0.4-2.1,6.2c0.6,5.8,1.6,8.9,1.6,8.9
	s-0.8,1.8-1.6,2.1c-0.8-1.9-1.4-7.6-2.2-10.8c-0.4-1.6-0.9-2.5-1.4-2c-0.6-0.5-1.2-0.7-1.9-0.3c-1.2,0.9-1.2,5.2-1.6,6.3
	c-0.4,1.1-1.3,6.9,0,11.7c1.4,4.8,5.7,4.3,6.8,3.9c0,0,1.3,0.1,1.7,2C259.3,103.6,260.7,106.9,261.8,109.8z"/>
<path class="st9" d="M313.1,42.8c-1.5-1.4-3.1-2.3-4.5-3.2"/>
<path class="st9" d="M272,35.7c3.9-1.5,13.2-2.2,18.5-1.5c1.5,0.2,3.1,0.2,4.8,0.1"/>
<path class="st9" d="M250.8,63.8c0,1.9-0.1,3.5-0.4,5"/>
<path class="st10" d="M313.2,79.2c-0.5,0.2-1,0.8-1.4,1.7"/>
<path class="st11" d="M255.5,80.8c-0.5-0.8-0.9-1.5-1.4-2C254.6,78.3,255.1,79.2,255.5,80.8z"/>
<path class="st12" d="M277.9,208.5c2.8-2.5,5.5-5.7,8.2-9.4"/>
<path class="st11" d="M315.6,80.9c-1.2-5.4-3.6-2.1-3.9,0c0,0,0,0,0,0c-1.3,2.6-2.6,7.3-3.8,8.6c0.2-3.7,2.5-15.2,2.2-19.6
	c-0.7-0.6-1.4-1.2-2.1-1.8c-5.7-4.9-2.8-17.2-2.8-17.2c-1.2,3.1-4.2,6.8-14,7.9c-6.3,0.7-11,1-12.6,1.1c-4.8,0.3-11.4,7.3-17.6,8.7
	c-0.9,2.3-1.1,5.9-1.1,5.9s-2.7,0.4-2.1,6.2c0.6,5.8,1.6,8.9,1.6,8.9s-0.8,1.8-1.6,2.1c-0.8-1.9-1.4-7.6-2.2-10.8
	c-0.5-0.8-0.9-1.5-1.4-2c-0.6-0.5-1.2-0.7-1.9-0.3c-1.2,0.9-1.2,5.2-1.6,6.3c-0.4,1.1-1.3,6.9,0,11.7c1.4,4.8,5.7,4.3,6.8,3.9
	c0,0,1.3,0.1,1.7,2c0.2,1.1,1.6,4.4,2.7,7.3c0.7,1.9,1.4,3.6,1.5,4.4c0.5,3.4,2.5,17.7,0.9,27.4h0c-0.8,4-2.9,7.5-5.3,8.7
	c0.1,4.4,1.1,10.8,4.2,18.4c9.5,6.1,27.7,9.2,38.1,1.8c0,0,0,0,0,0c3-8.3,4.5-15.7,3.4-19.6c-0.9-3-2.9-5.2-5.4-6.7c0-0.6,0-1.3,0-2
	c-0.1-7.1,0.2-17.8,0.4-21.8c2.5-3.7,5-8.1,5.8-9.6c0.6-1.1,1.5-4,2.3-6.8c1-3.5,1.8-6.9,1.8-6.9c2.8,4.1,5.7-2.7,6.2-5.4
	C315.9,89.8,316.8,86.3,315.6,80.9z"/>
<path class="st12" d="M287.2,199.8c-0.3-0.2-0.7-0.5-1-0.8"/>
<path class="st12" d="M315.9,164.1c2.2,17-14.8,43.9-24.1,53.1"/>
<path class="st12" d="M232.2,256.1c-0.4,0.1-0.7,0.2-1.1,0.3"/>
<path class="st13" d="M301.1,170.5c-3.5,9.5-9,20.2-15,28.5c-3.7-2.8-7.9-6.8-12.5-12.6c-5-6.3-8.3-12.4-10.6-17.8
	C272.5,174.8,290.8,177.9,301.1,170.5z"/>
<path class="st3" d="M360.9,213.9c-1.3-11.1,0-24.8-6.6-46c0,0-6-5.3-18.7-9.2c-8.7-2.6-13.8-6.6-26.8-12.6c-4.1-1.9-7.2-3.1-9.7-4
	c0,0.7,0,1.4,0,2c2.6,1.5,4.5,3.7,5.4,6.7c1.1,3.9-0.3,11.3-3.4,19.6c0,0,0,0,0,0c-3.5,9.5-9,20.2-15,28.5
	c-3.7-2.8-7.9-6.8-12.5-12.6c-5-6.3-8.3-12.4-10.6-17.8c-4.1-10.1-4.4-18.2-4-22.1c0.1-0.7,0.3-1.3,0.5-1.8
	c-1.6,2.4-4.2,5.3-8.4,6.9c-4.4,1.7-5.3,1.6-11.4,5.9c-6.1,4.3-15.2,7-20.8,8.7c-5.6,1.7-9.4,11.4-11.2,23.9
	c-1.8,12.5-2.3,17.5-6.1,26.3c-3.6,8.4-6.5,19.6-8.1,28.4c-0.1,0.5-0.2,1-0.3,1.4c-0.2,1.3-0.1,1.7-0.1,1.7s0.8,1.5,3.3,3.2
	c1.5,1.1,3.8,2.4,6.8,3.5c6.7,2.6,16.7,4.6,28.1,1.6c-0.4,7-1.1,13.8-2.1,18.3c-0.3,1.4-0.5,2.8-0.7,4.3v0c-1,10.5,2.8,21,2.4,28.9
	c-0.4,8.9-4.8,48.8-4.3,62.8c0.5,0.5,1.1,1,1.8,1.5c5.7,4.1,17.7,7.5,33.9,9l-13.8-39.9l17.4-10.6c0,0,0,0,3.4-12.5
	c3.4-12.5,17.9-22.4,28-15.1c1.7-2.3,4-4.2,6.9-5.4c10.3-4.3,17.3,1.1,19.6,8.3l4.2-2.9h2.6c-0.1-10.3,0.9-22,1.9-31.3v0
	c0.3-2.6,0.6-5.1,0.9-7.3c7.1,1.7,20.5-0.5,28.1-6.9c1.1-0.9,2-1.9,2.8-3c6.4-8.7,6.4-8.7,6.4-8.7S362.1,225,360.9,213.9z
	 M196.1,235.6c0,0,0,0.1-0.1,0.2C196.1,235.7,196.1,235.6,196.1,235.6z M323.6,204c0,0-9.6,0.8-12.6,0c-0.9-2.3-0.9-4.7-0.9-4.7
	s11.5,0,14.3,0C324.5,201.7,323.6,204,323.6,204z"/>
<path class="st13" d="M324.5,199.3c0,2.3-0.8,4.7-0.8,4.7s-9.6,0.8-12.6,0c-0.9-2.3-0.9-4.7-0.9-4.7S321.7,199.3,324.5,199.3z"/>
<path class="st14" d="M312.2,208.5c2.7,0.3,8.1,0.5,9.8,0.3"/>
<path class="st14" d="M311.9,212.2c1.9,0.4,7.4,0.8,9.3,0.5"/>
<path class="st14" d="M311.4,216.6c1.7,0.3,5.8,0.4,5.8,0.4"/>
<path class="st12" d="M225.3,412.7c-0.5-0.4-1.1-0.9-1.7-1.6"/>
<path class="st11" d="M226.9,380c-0.6-0.2-1.2-0.4-1.7-0.5c-1.6-0.5-3.8-3.5-4.9-6.4c-1.1-2.9-1.1-6.4-1.4-10.9
	c-1.4-19.4,6.7-31.6,6.5-44.2c-0.2-12.6-3.3-20.6-3-23.9c0.3-3.3,5.1-10.5,6-15.1v0c0.1-1.4,0.4-2.8,0.7-4.3
	c1-4.5,1.7-11.3,2.1-18.3c-11.3,3-21.4,1-28.1-1.6c-0.6,7-4.7,25.3-6.4,31.2c-1.7,6-6.6,13.6-3.5,39c3.1,25.3,7.3,37.3,8.8,51.9
	c1.7,15.7,8.7,16.5,11.7,20.3c1.2,1.6,2.8,4,4.4,6.5c1.8,2.7,3.6,5.5,5.4,7.4c4.6-10.1,6.7-17.9,7.6-23.3c0.4-2.4,0.5-4.4,0.5-6
	C230.1,380.9,228.3,380.4,226.9,380z"/>
<path class="st12" d="M223.6,411.1c-0.2,0.5-0.5,1-0.7,1.6"/>
<path class="st11" d="M355.9,344.8c-0.2,2.1,0.6,8.5-1.4,13.2c-2.1,4.8-3.4,10.4-6.1,12.1c-0.3,0.2-0.8,0.5-1.2,0.8l-6.8-32.3v0
	l-5.3-25.2c0.3-6.8,1-12.5,0.7-14.7c-0.6-3.8-2.9-18.5-3.4-27.2v0c0.3-2.6,0.6-5.1,0.9-7.3c7.1,1.7,20.5-0.5,28.1-6.9
	c1,5.1-2.3,18.2-0.7,26.4c1.6,8.1,4.9,16.6,3.5,28.1C362.6,323.4,356,342.8,355.9,344.8z"/>
<path class="st1" d="M353.9,403.6l-16.6,13.3l-25.1,20.2h-2l-15.6-44.9l-3.6-10.4l-15-43.1l15.7-10.8l12.9-8.9c0.9,1.7,2.3,2.9,4,3
	c3,0.2,5.7-2.9,6.1-7c0.1-1,0-1.9-0.2-2.8l9.1-6.3l4.2-2.9h5.1l2.2,10.6l5.3,25.2v0c0.3,3-7.7,7.5-11.8,12.6
	c-4.2,5.1-7.5,9.7-8.4,11.7c-0.8,1.6-1,4.5,1.7,5.1c-1.8,1.3-2.2,3.1-1.1,4.9c1.1,1.8,5.1,0.6,5.7,0.1c-0.6,0.6-1.1,1.1-1.1,1.3
	c-0.3,1.4,1.1,3.4,3.5,2.7c0.5-0.1,1.4-0.5,2.4-1.1c-0.5,1.3,1.1,3.3,3.6,2.4c2.2-0.8,8.8-5.2,12.2-7.5L353.9,403.6z"/>
<path class="st11" d="M347.1,371c-3.4,2.3-9.9,6.6-12.2,7.5c-2.5,1-4.1-1.1-3.6-2.4c-1.1,0.6-1.9,1-2.4,1.1
	c-2.4,0.6-3.9-1.3-3.5-2.7c0.1-0.2,0.5-0.7,1.1-1.3c-0.6,0.5-4.6,1.7-5.7-0.1c-1.1-1.8-0.6-3.7,1.1-4.9c-2.7-0.6-2.5-3.5-1.7-5.1
	c1-2,4.3-6.5,8.4-11.7c4.1-5.1,12.1-9.6,11.8-12.6L347.1,371z"/>
<path class="st15" d="M312.2,437.1h-2l-15.6-44.9l-3.6-10.4l0,0l-15-43.1l15.7-10.8c-0.2-7.2,0.1-17.9,5.4-24.9
	c-10.1-7.2-24.5,2.6-28,15.1c-3.4,12.5-3.4,12.5-3.4,12.5l-17.4,10.6l13.8,39.9c1.9,0.2,3.9,0.3,6,0.5c1.1,0.1,2.2,0.1,3.3,0.2
	c-1.1-0.1-2.2-0.1-3.3-0.2c-2.1-0.1-4.1-0.3-6-0.5c-16.2-1.5-28.2-4.9-33.9-9c-0.1,1.3-0.6,4.4-1.3,7.8c1.4,0.4,3.1,1,4.8,1.8
	c0,1.6-0.2,3.6-0.5,6l0,0c-0.9,5.5-3,13.2-7.6,23.3c-1.7-1.9-3.6-4.7-5.4-7.4c-0.2,3.2-0.1,7.7,0.5,14.2c0.9,9.8,1.6,16.3,2.2,21.2
	c0,0,4.2,7.5,20.2,9.1c15.6,1.6,19.3-1.7,37.7-4c0.1-0.7,0.3-1.3,0.4-2c-0.1,0.7-0.2,1.4-0.4,2c2.6-0.3,17.9-0.2,27.5,0
	c9.6,0.2,25.2-3,30.7-8.5c0.2-4.1,0.4-11.9,0.5-18.9L312.2,437.1z M279.4,438.1c0-9-3.4-17.6-3.4-17.6l-9.9-26c-0.1,0-0.1,0-0.2,0
	c0.1,0,0.1,0,0.2,0l9.9,26C276,420.5,279.4,429.2,279.4,438.1z"/>
<path class="st16" d="M312.2,437.1h-2l-15.6-44.9l-3.6-10.4c-1,0.1-1.9,0.1-2.9,0.1c-9.5,0.3-18.2-0.1-25.9-0.8
	c-16.2-1.5-28.2-4.9-33.9-9c-0.1,1.3-0.6,4.4-1.3,7.8c1.4,0.4,3.1,1,4.8,1.8c0,1.6-0.2,3.6-0.5,6c2.9,2.1,18.5,7.2,34.3,6.7
	c0.2,0,0.4,0,0.6,0l9.9,26c0,0,5.1,13.1,2.7,23.8c2.6-0.3,17.9-0.2,27.5,0c9.6,0.2,25.2-3,30.7-8.5c0.2-4.1,0.4-11.9,0.5-18.9
	L312.2,437.1z"/>
<path class="st1" d="M323.6,305.9l-9.1,6.3c-0.6-2.8-2.4-4.9-4.7-5.1c-3-0.2-5.7,2.9-6.1,7c-0.1,1.8,0.2,3.5,0.9,4.9l-12.9,8.9
	c-0.2-7.2,0.1-17.9,5.4-24.9c1.7-2.3,4-4.2,6.9-5.4C314.3,293.2,321.2,298.6,323.6,305.9z"/>
<path class="st17" d="M314.6,315c-0.3,4.1-3,7.3-6.1,7c-1.7-0.1-3.1-1.3-4-3c-0.7-1.4-1-3.1-0.9-4.9c0.3-4.1,3-7.3,6.1-7
	c2.3,0.2,4.1,2.3,4.7,5.1C314.6,313.1,314.7,314,314.6,315z"/>
<path class="st10" d="M279,125.7c3.3,2.6,12.6,3.1,16.3,0c1.1-0.9,2.6-3,4.2-5.4"/>
<path class="st17" d="M264.2,141.6c-0.8,4-2.9,7.5-5.3,8.7c0-1.5,0-2.7,0.1-3.7c0.1-0.7,0.3-1.3,0.5-1.8
	C260.4,143.3,262,142.3,264.2,141.6z"/>
<path class="st18" d="M231.3,377.6c0.2,0.6,0.4,2,0.4,4.2"/>
<path class="st19" d="M248.3,168.7c0.5,4.7,3.8,15.8,13.7,29.5"/>
<path class="st19" d="M333.2,264.4c0.2-1.9,0.5-3.6,0.7-5c1.5-11.1,6.2-48.5,6.6-56.2"/>
<path class="st19" d="M226.5,199.3c-0.2,6,5,19.8,5.2,28.1c0.1,5.1,0.2,17.5-0.5,29"/>
<path class="st10" d="M337.5,364.5c0,0-8,5.9-11,8.7c0,0,0,0,0,0"/>
<path class="st10" d="M331.3,376.1c3.9-2.1,10.6-6.5,12.3-7.5"/>
<path class="st10" d="M326.5,373.2C326.5,373.2,326.5,373.2,326.5,373.2"/>
<path class="st10" d="M321.9,368.1c1.8-1.3,9.7-8.3,11-9.7"/>
<path class="st10" d="M299.1,144.2c0.1,2.2,0.2,3.9,0.4,4.5c0.8,2.7,3.7,3,3.7,3"/>
<path class="st20" d="M90.1,181.7c0,0-1,1.7-2.6,2.2"/>
<path class="st20" d="M111.8,144.9c-0.1-0.2-0.3-0.4-0.4-0.6"/>
<path class="st21" d="M100.6,124.7c-0.2,3.3,5.1,11.7,7.3,15.4"/>
<path class="st13" d="M121.8,236.4c-1.7,7.2-7.2,17.1-13.1,25.8c-9.3-4.4-21.3-12.9-26.4-20.7c-4.9-7.5-6.6-13.2-6.6-17.3v0
	c0.4-0.3,0.8-0.7,1.1-1.1c0.1,3.1,1.3,15.7,20.5,18.2c19.6,2.5,23.9-12.2,22.1-16.7c-1.4-3.7-3.2-5-5-6.1c0.1-0.7,0.2-1.4,0.4-2.1
	c1,0.5,2,1.2,2.9,2.1c0,0,0,0,0.1,0.1C121.4,222,123.6,228.2,121.8,236.4z"/>
<path class="st3" d="M142.3,379.7c0.2-8.6-0.2-26.4,0.5-39.7c-0.5-0.1-1-0.2-1.5-0.3l-8.6,8.2l-4,0.2L73,350.3l-0.9-2.1l15.9-21
	c-8.6,0.9-23.2,7.9-33.1,11.7c-1,6.3-2.4,12.9-4.5,19.5c-0.7,2.3-1.6,4.6-2.5,6.9c-6.6,15.9-7.3,45-7.3,45s1.3,2.4,6.8,5.8
	c0,1,0,2.4,0.1,3.9c0.4,7.4,1.7,18.9,1.8,20.6c0.1,2.1,14.6,10.3,45.5,9.5c30.9-0.8,37-5.4,38-6.6c0.8-2.8,2.6-13.4,3.4-20.3
	c0.2-1.3,0.3-2.5,0.3-3.5c2.9-1.9,5.4-4.1,6.6-6.6C143.9,408,142.2,389,142.3,379.7z"/>
<path class="st15" d="M128.8,348l-5.5,9.7l-35.9,4L66.3,364l-2.5-1.7c0,0-8.1,0.4-13.3-3.9c2.1-6.5,3.5-13.1,4.5-19.5
	c9.8-3.7,24.5-10.7,33.1-11.7l-15.9,21l0.9,2.1L128.8,348z"/>
<path class="st16" d="M136.7,419.8c-0.1,1-0.2,2.1-0.3,3.5c-2.1,1.5-4.5,2.9-6.9,3.7c-8.1,2.8-20.3,11.9-46.9,7
	c-26.7-4.9-31.3-10.8-34.9-14c-0.1-1.5-0.1-2.9-0.1-3.9c1.3,0.8,2.9,1.7,4.8,2.6c0.3-10.7,1.2-19.2,1.5-21.9
	c0.3,4.6,1.7,18.1,3.1,24.5c3.7,2.6,21.5,8.9,40.6,9.9c19.1,1,23.3-5.9,29.7-7.3C130.3,423,133.7,421.6,136.7,419.8z"/>
<path class="st15" d="M136.3,423.2c-0.8,6.9-2.6,17.5-3.4,20.3c-1,1.2-7.1,5.8-38,6.6c-31,0.8-45.4-7.5-45.5-9.5
	c-0.1-1.7-1.4-13.3-1.8-20.6c3.6,3.2,8.2,9.1,34.9,14c26.7,4.9,38.8-4.2,46.9-7C131.9,426.1,134.2,424.7,136.3,423.2z"/>
<path class="st22" d="M147.6,139.7c-0.7-3.9-7.3-19.5-23.7-22.7c-0.7-0.1-1.4-0.3-2.1-0.4c-14.8-2.6-20.6,0.4-21.1,3.2
	c-4.5-0.6-12.6-0.6-20.8,11.5c-5.8,8.6-4.6,18.5-3,29.2c1.5,10.6-7.9,11.4-7.8,23.6s9.2,16.3,9.2,16.3s4.6,1.7,6.8,2.1
	c0.2-0.7,0.3-1.4,0.5-2.1c1.6-7.8,2.2-14.7,1.9-16.4c-0.5,0.2-1.2,0.2-1.8,0c-3.5-1.1-4.9-6.1-5.5-10.4c0-0.2,0-0.3-0.1-0.5
	c-0.5-3.7,0.6-6.9,2.6-8.4c0.4-0.3,0.9-0.5,1.4-0.7c0.6-0.2,1.2-0.3,1.8-0.2c0.8-1.2,5.2-1.6,5.6,1.8c0.4,3.5,0.2,7,1.6,8.3
	c0.8-2.6,1.6-6.2,1.6-6.2c1.3-5.7,2.2-10.4,5.2-12.6c0.6-3.6,1.7-10.2,11.9-10.3c9.4,14.1,21.7,12.6,26.2,22.6
	c4,8.9,2.6,9.6,2.6,9.6c0.3,2.3,0.2,6.4-0.2,9.7c3.8-4.5,10.7-17.5,11-25.1C151.8,154.1,148.3,143.6,147.6,139.7z"/>
<path class="st23" d="M112.7,117.3c-9.4-1.2-12.1,5.7-12.1,5.7s-2.7-0.9-7.9,0.6c-15.7,4.5-9,25.3-8.7,30.3
	c0.1,2.2-0.3,6.2-1.2,10.7c-2,1.5-3.1,4.7-2.6,8.4c0,0.1,0,0.3,0.1,0.5c-1.1,3-2.5,6-4.1,8.6c-4.9,7.8,3.3,15.9,9.6,18.2
	c-0.1,0.7-0.3,1.4-0.5,2.1c-2.2-0.5-6.8-2.1-6.8-2.1s-9.1-4.1-9.2-16.3c-0.1-12.2,9.3-13,7.8-23.6c-1.5-10.6-2.8-20.5,3-29.2
	c8.2-12.1,16.2-12.1,20.8-11.5c0.5-2.8,6.3-5.8,21.1-3.2C121.8,116.6,122.1,118.5,112.7,117.3z"/>
<path class="st11" d="M82.7,164.7c-0.6,2.8-1.4,5.9-2.5,8.9c0-0.2,0-0.3-0.1-0.5C79.6,169.4,80.6,166.2,82.7,164.7z"/>
<path class="st11" d="M140.6,177.1c0.3,2.3,0.2,6.4-0.2,9.7c-0.2,1.3-0.4,2.4-0.6,3.3c-0.9,3.1-15.9,23-17.1,23.9
	c-1,0.7-4.3,1-7.4,0.6c-0.1,0.6-0.3,1.2-0.4,1.8c-0.2,0.7-0.3,1.4-0.4,2.1c1.7,1.1,3.5,2.4,5,6.1c1.7,4.5-2.6,19.2-22.1,16.7
	c-19.2-2.4-20.5-15.1-20.5-18.2c0.4-0.4,0.7-0.9,1.1-1.4c1.2-1.9,2.4-4.1,3.4-6.5c0.1-0.3,0.3-0.7,0.4-1c1.4-3.7,2.6-7.8,3.5-11.7
	c0.2-0.7,0.3-1.4,0.5-2.1c1.6-7.8,2.2-14.7,1.9-16.4c-0.5,0.2-1.2,0.2-1.8,0c-3.5-1.1-4.9-6.1-5.5-10.4c1.1-3,1.9-6,2.5-8.9
	c0.4-0.3,0.9-0.5,1.4-0.7c0.6-0.2,1.2-0.3,1.8-0.2c0.8-1.2,5.2-1.6,5.6,1.8c0.4,3.5,0.2,7,1.6,8.3c0.8-2.6,1.6-6.2,1.6-6.2
	c1.3-5.7,2.2-10.4,5.2-12.6c0.6-3.6,1.7-10.2,11.9-10.3c9.4,14.1,21.7,12.6,26.2,22.6C142,176.4,140.6,177.1,140.6,177.1z"/>
<path class="st24" d="M116.9,224.6c-2.5-1.6-2.8-3.8-2.5-6.1"/>
<path class="st17" d="M81.2,215.2c-1,2.4-2.1,4.7-3.4,6.5c-0.3,0.5-0.7,1-1.1,1.4c-0.3,0.4-0.7,0.8-1.1,1.1
	C75.7,218.3,79.1,215.6,81.2,215.2z"/>
<path class="st3" d="M172.6,297.5l-32.3-0.5l-29.1-0.4l-0.9,1.2c-0.6-0.7-1.2-1.1-1.8-1.2c-1.4-0.3-2.3,0.6-2.3,2.3
	c0,0-0.7-2.5-2.4-2.4c-1.7,0.1-4,0.3-7.4,0.1c-3.4-0.2-6.7,0.6-7.3,2.3c-0.5,1.7-4.4,14.1-4.4,14.1s-0.7,1.1-8,3.3
	c-5.8,1.8-11.8,0.2-19.2-1.2c0.1-2,0.2-4.2,0.3-6.5c-1.5,0.2-2.6,0.1-3.7,0.1c-1.7-0.1-3.3-0.2-4.8-0.3c-11.4-1.1-19.4-4.4-25.4-8.1
	c-2.6-1.6-4.9-3.4-6.8-5c3.5-5.2,12-25,16.6-39.1c4.6-14.1,6.6-15.5,12.3-19.9c8.6-2.7,21.5-10.3,25.9-15.4c3.2-3.6,6.6-7,9.7-6.8
	c-0.1,0.3-0.3,0.7-0.4,1c-2.1,0.4-5.5,3.1-5.5,9v0c0,4.1,1.7,9.8,6.6,17.3c5.1,7.8,17.1,16.2,26.4,20.7c5.9-8.7,11.5-18.6,13.1-25.8
	c1.9-8.2-0.3-14.4-3.9-17.9c3.1,2.6,10.9,9.6,15.6,11.5c4.8,2,14.1,4.4,20.6,10.7c5.5,7.6,6.4,24.4,11.3,37.5
	C169.1,288.1,171.6,294.8,172.6,297.5z"/>
<path class="st13" d="M141.4,339.6l-8.6,8.2l-4,0.2L73,350.3l-0.9-2.1l15.9-21l7-9.2l3.1-4c-0.1,1.8-0.1,4.3,0,5.9
	c0,0.5,0,0.9,0.1,1.1c0.1,1.7,5.1,3.5,6.7,4.7c1.9,1.4,6.3,5.2,9.1,5.6c5.5,0.8,12.3,4,18.8,5.9C134.5,337.7,138,338.9,141.4,339.6z
	"/>
<path class="st13" d="M181.9,301.3l-8.8,8.3l-18.6,17.7c-3-1.1-6.5-3.8-7.5-7.3c-1-3.5-5.4-5.3-6.6-6.3c-1.9-1.6-3.5-4.8-4.6-5.8
	c-1-1-4.8-2.8-5.8-3.9c-1-1-5,0.1-3,4.8c2.1,4.7,5.3,3.7,7.5,6c2.2,2.3,1.8,5.2-2.2,4.5c-4-0.6-7.1-4.6-9-5.9
	c-1.9-1.3-6.1-6.3-7.5-7.9c-0.6-0.7-1.6-2.3-2.7-4.1c-0.9-1.3-1.8-2.7-2.7-3.6l0.9-1.2l29.1,0.4l32.3,0.5l8.3,0.1L181.9,301.3z"/>
<line class="st25" x1="98" y1="319.9" x2="76.8" y2="346.1"/>
<polyline class="st25" points="113,301.5 113.6,300.7 169.8,301.7 "/>
<path class="st25" d="M87.5,360.6c-2,18.2,9.3,24.8,15.7,30.3c6.4,5.5-6.5,13.8-5.2,19.9c1.3,6.2,13.6,7.9,33.6-3.4"/>
<path class="st11" d="M173.2,309.6l-18.6,17.7c-3-1.1-6.5-3.8-7.5-7.3c-1-3.5-5.4-5.3-6.6-6.3c-1.9-1.6-3.5-4.8-4.6-5.8
	c-1-1-4.8-2.8-5.8-3.9c-1-1-5,0.1-3,4.8c2.1,4.7,5.3,3.7,7.5,6c2.2,2.3,1.8,5.2-2.2,4.5c-4-0.6-7.1-4.6-9-5.9
	c-1.9-1.3-6.1-6.3-7.5-7.9c-0.6-0.7-1.6-2.3-2.7-4.1c-0.9-1.3-1.8-2.7-2.7-3.6c-0.6-0.7-1.2-1.1-1.8-1.2c-1.4-0.3-2.3,0.6-2.3,2.3
	c0,0-0.7-2.5-2.4-2.4c-1.7,0.1-4,0.3-7.4,0.1c-3.4-0.2-6.7,0.6-7.3,2.3c-0.5,1.7-4.4,14.1-4.4,14.1s-0.7,1.1-8,3.3
	c-5.8,1.8-11.8,0.2-19.2-1.2c-2.1-0.4-4.3-0.8-6.7-1.1c-1.2-0.1-2.3-0.2-3.4-0.2c0.1-0.2,1.3-3.3,1.9-5.4
	c-11.4-1.1-19.4-4.4-25.4-8.1c-1.1,4.7-4.6,17.1-5.4,19.1c-0.8,2-2,7.8,0,12.1c2,4.4,3.4,7.6,3.8,8.9c0.4,1.3,1.7,3.7,7.5,3.3
	c5.8-0.4,11.4-0.4,20.6-3.3c1.3-0.4,2.8-0.9,4.5-1.6c9.8-3.7,24.5-10.7,33.1-11.7l7-9.2l3.1-4c-0.1,1.8-0.1,4.3,0,5.9
	c0,0.5,0,0.9,0.1,1.1c0.1,1.7,5.1,3.5,6.7,4.7c1.9,1.4,6.3,5.2,9.1,5.6c5.5,0.8,12.3,4,18.8,5.9c1.8,0.5,5.3,1.6,8.7,2.4
	c0.5,0.1,1,0.2,1.5,0.3c0.9,0.2,1.8,0.3,2.6,0.4c4.3,0.5,8.1-1.9,10.9-4c4.4-3.3,9-3.5,12.6-8C172.5,323.8,175.5,318,173.2,309.6z"
	/>
<path class="st24" d="M27.3,320.7c3.4-3.4,10.9-7.1,20.1-6.9"/>
<path class="st24" d="M95,318c2.3-3-1.3-7.5-0.7-12.1"/>
<path class="st24" d="M95.7,301.7c3.1-0.5,5.5-1,5.5-1"/>
<path class="st25" d="M108.6,262.2c-1.3,1.9-2.6,3.7-3.9,5.5"/>
<path class="st25" d="M131.6,241.3c-1.3,7.7-6.9,23.6-10.8,29.7"/>
<path class="st25" d="M66.3,243.2c3.8,6.9,11.9,18.2,28.7,30.9"/>
<path class="st25" d="M46.4,243.2c1.4,6.7,11.5,13.6,13,26.3"/>
<path class="st25" d="M143.4,271.1c-1.5,3.8-3.3,17.6-3.1,26"/>
<path class="st24" d="M90.8,184.8c0.5,3.5,1.8,13.1,3.8,15.9c1.2,1.7,14.4,12.1,17.8,13.2c0.9,0.3,1.9,0.5,2.9,0.6"/>
<path class="st25" d="M57.9,308.7c0.4-12.6,0.2-27.4,0.8-31.5"/>
<path class="st24" d="M109.1,306.3c1.4,2.4,2.3,3.5,3.3,4.3c1.4,1.2,3.5,2.8,3.6,3.9"/>
<path class="st24" d="M104.1,312.4c0.5,1.6,0.8,3,3.1,3.9c2.5,1,5.7,2.5,6.3,3.1"/>
<path class="st24" d="M100.5,316.9c0,0.1,0,0.2,0,0.3c0.3,1.7,1.8,2.7,4.2,3.6"/>
<path class="st24" d="M90.1,169.7c-0.5-3.9-2.1-5.8-4.3-5.9"/>
<path class="st24" d="M85.8,163.8c0,0-0.1,0.1-0.1,0.1"/>
<path class="st26" d="M536.3,397.2v-2.8c0.7,0.1,1.2,0.7,1.2,1.4C537.5,396.5,537,397.1,536.3,397.2z"/>
<path class="st26" d="M719.5,394.4v2.9c-0.9,0-1.6-0.6-1.6-1.4C717.9,395,718.7,394.4,719.5,394.4z"/>
<path class="st26" d="M719.5,394.4c-0.9,0-1.6,0.6-1.6,1.4c0,0.8,0.7,1.4,1.6,1.4c0.9,0,1.6-0.6,1.6-1.4
	C721.1,395,720.4,394.4,719.5,394.4z M536.3,394.4c-0.1,0-0.2,0-0.3,0c-0.9,0-1.6,0.6-1.6,1.4c0,0.8,0.7,1.4,1.6,1.4
	c0.1,0,0.2,0,0.3,0c0.7-0.1,1.2-0.7,1.2-1.4C537.5,395.2,537,394.6,536.3,394.4z"/>
<rect x="536.3" y="369.7" class="st1" width="183.2" height="50.6"/>
<path class="st1" d="M708.4,336.3c-3.2-1-6.6-1.6-10.1-1.6H557c-6.9,0-13.4,2.1-18.7,5.8c-8,5.5-13.6,14.4-14.4,24.6
	c-0.1,0.9-0.1,1.9-0.1,2.8c0,0,0,17.4,0,37.2v56.1c0,2.8,10.3,3.1,10.3,0c0-3.4,0-27.6,0-27.6h187.1c0,0,0,22.8,0,27.6
	c0,4.3,10.3,4,10.3,0v-60.8c0-17.8,0-32.5,0-32.5C731.5,353.2,721.8,340.6,708.4,336.3z M721.2,388.8c-0.6,0.1-1.1,0.3-1.7,0.4
	c-3.5,1.2-6,3.8-6,6.7c0,3,2.4,5.5,6,6.7c0.5,0.2,1.1,0.3,1.7,0.4v20.2H534.1V403c0.8-0.2,1.5-0.5,2.2-0.8v0
	c2.9-1.3,4.8-3.6,4.8-6.3c0-2.6-1.9-4.9-4.8-6.2v0c-0.7-0.3-1.4-0.6-2.2-0.8V368c0-3,0.6-5.8,1.6-8.5c3.4-8.4,11.6-14.4,21.2-14.4
	h141.3c12.6,0,22.9,10.3,22.9,22.9V388.8z M721.1,395.8c0,0.8-0.7,1.4-1.6,1.4c-0.9,0-1.6-0.6-1.6-1.4c0-0.8,0.7-1.4,1.6-1.4
	C720.4,394.4,721.1,395,721.1,395.8z M537.5,395.8c0,0.7-0.5,1.3-1.2,1.4l0,0c-0.1,0-0.2,0-0.3,0c-0.9,0-1.6-0.6-1.6-1.4
	c0-0.8,0.7-1.4,1.6-1.4c0.1,0,0.2,0,0.3,0l0,0C537,394.6,537.5,395.2,537.5,395.8z"/>
<path class="st3" d="M680.7,345.1c-9.9,3.6-20.8,9.1-39.1,11.8c-27.8,4-19.3-5.2-69.4-2.7c-16.6,0.8-28.3,2.8-36.5,5.3
	c3.4-8.4,11.6-14.4,21.2-14.4H680.7z"/>
<path class="st15" d="M721.2,368v20.8c-0.6,0.1-1.1,0.3-1.7,0.4v-19.5H536.3v19.9c-0.7-0.3-1.4-0.6-2.2-0.8V368c0-3,0.6-5.8,1.6-8.5
	c8.2-2.6,19.8-4.5,36.5-5.3c50.2-2.4,41.7,6.8,69.4,2.7c18.3-2.7,29.1-8.2,39.1-11.8h17.6C710.9,345.1,721.2,355.4,721.2,368z"/>
<path class="st27" d="M537.5,395.8c0,0.7-0.5,1.3-1.2,1.4c-0.1,0-0.2,0-0.3,0c-0.9,0-1.6-0.6-1.6-1.4c0-0.8,0.7-1.4,1.6-1.4
	c0.1,0,0.2,0,0.3,0C537,394.6,537.5,395.2,537.5,395.8z"/>
<path class="st27" d="M721.1,395.8c0,0.8-0.7,1.4-1.6,1.4c-0.9,0-1.6-0.6-1.6-1.4c0-0.8,0.7-1.4,1.6-1.4
	C720.4,394.4,721.1,395,721.1,395.8z"/>
<path class="st15" d="M523.9,365.2c-0.1,0.9-0.1,1.9-0.1,2.8c0,0,0,17.4,0,37.2c-0.8-0.4-1.6-0.9-2.3-1.4
	c-2.2-1.9-4.8-16.5-4.6-25.4C517,374.3,518.1,369.5,523.9,365.2z"/>
<path class="st15" d="M735.1,384.2c-1.4,11.4-2.4,15.1-3.6,16.3c0-17.8,0-32.5,0-32.5c0-14.8-9.7-27.4-23.2-31.7
	c7.8,0.4,16.7,2.4,20.6,8.8C734.6,354.5,737.5,364.5,735.1,384.2z"/>
<path class="st3" d="M739.7,356.4c-0.5-14.2-4.3-18.6-15.8-26.3c-0.9-0.6-2-1.2-3.3-1.7c-0.4-11.8,0.5-21.9,0.6-38.3
	c0-1.9,0-3.8,0-5.9c-37.3-13.4-142.5-7.4-192.8,2.1c-6.2,17.1-4.6,43.1-3.1,58.1c-6.6,5.4-13.1,19-12.5,33c0.7,15.6,2.7,22,8.7,26.2
	c-2.2-1.9-4.8-16.5-4.6-25.4c0.1-4.1,1.2-8.9,7-13.3c0.9-10.3,6.4-19.2,14.4-24.6c-0.4,0.1-0.8,0.2-1.2,0.3c0.4-0.1,0.8-0.2,1.2-0.3
	c5.3-3.6,11.8-5.8,18.7-5.8h141.3c3.5,0,6.9,0.5,10.1,1.6c7.8,0.4,16.7,2.4,20.6,8.8c5.6,9.4,8.6,19.4,6.2,39.1
	C738.7,381.7,740.2,370.6,739.7,356.4z"/>
<path class="st27" d="M640.9,401.6c0.7,9.9-7.1,14.4-22,17.2c-17.7,3.3-36.9,9.4-48.1,50.5c-0.4,1.6,2,2.1,2.6,0.2
	c6.4-23.3,18-44.2,46-47.7c20-2.5,23.5-9.2,24.8-15.4c1.4,0.2,2.3-0.5,2.3-0.5l0.6-3.9"/>
<path class="st27" d="M578.7,377.6l-1.5,3.3c0,0,0.3,0.8,0.7,1.6c-5.9,6.5-3.3,20.6-2.6,23.3c0.7,2.7-0.9,3.7-2.9,3.6
	c-2-0.1-0.8,2.3-0.8,2.3s-2.2,0.4-0.9,2.8c1.3,2.4-2.2,1.6-0.4,3.6c1.8,2.1-2,0.9-0.5,3.6s-2,0.6-0.3,3.3s-2.5,0.4-0.5,3.3
	c2,2.9-2.3-0.3-0.5,3.3s-1.3,0.2-0.4,3s-1.9-0.1-1,3.1c0.9,3.2-2.3-0.5-1.8,2.7s-2.4-0.4-2.1,2.6c0.3,3-2.4-0.3-1.7,3.9
	s-2.3-1.4-1.6,3c0.7,4.3-1.8,0.2-1.2,3.4s-2.6,0.4-1.2,4.4c-0.3,1.3-1,4.9-1.2,9.5c0,1.3,2.1,1.6,2.2,0.2c0.2-3.1,0.5-6,0.7-8.8
	c-0.8-1.8-0.9-2.5,0.9-2c1.9,0.5-1-3.2,0.6-2.5c1.7,0.7,1.3-1.9,1.1-2.8c-0.2-0.9,2.4-0.8,2-3.2c-0.4-2.4,1.5-0.2,1.2-2.2
	s2.2-1,1.8-3.9c-0.4-2.9,2.5,0.6,2.1-2.2c-0.4-2.8,1.6-0.8,0.8-3.7c-0.8-3,2.4-0.1,1-3.4c-1.3-3.4,1.9-0.3,0.4-3.7
	c-1.5-3.4,1.6-0.5,0.5-3.7c-1-3.2,1.5-0.5,0.2-3.5c-1.2-3,1.2-0.6,0.7-3c-0.5-2.4,1.5-0.6,0.3-3.4c-1.1-2.8,2.1,0.3,0.7-2.8
	c-1.3-3.1,5.2,0.4,3.6-6.5c-1.6-7-3.3-13.8,3.1-24c0.6-1,1.2-1.9,1.7-2.8C583.2,377.8,580.9,376,578.7,377.6z"/>
<path class="st16" d="M735.1,384.2c2.4-19.7-0.5-29.7-6.2-39.1c-3.8-6.4-12.8-8.4-20.6-8.8c-3.2-1-6.6-1.6-10.1-1.6H557
	c-6.9,0-13.4,2.1-18.7,5.8c-1.5,0.4-3.4,0.8-5.9,1.3c0.6-0.1-2.9-4.8,2-7c1-0.5,2.9-1.1,5.4-1.8c9.3-2.6,26.9-6.3,40.8-6.3
	c17.7,0,49.3-0.5,60.3-1c10.3-0.5,61.3-4.3,79.5,2.8c1.3,0.5,2.4,1.1,3.3,1.7c11.6,7.6,15.3,12.1,15.8,26.3
	C740.2,370.6,738.7,381.7,735.1,384.2z"/>
<path class="st1" d="M705.7,330.7l-4.3,69.5c0,0-2.6,1.2-10.7,0.6c-8.1-0.6-26.2,1.4-38.4,1.4c-12.1,0-28.6-3.2-28.6-3.2l-0.2-2.6
	c0.2,0.1,3,1,17.4,2.7c15,1.8,44.5-0.2,50.3-0.9c1.7-14.1-0.1-27.3,0-34.4c-50.2,1.1-62.8-1.9-70-4l-0.2-3.3l2.6-31.4
	c0,0,3.5-3.2,15-3.8c11.5-0.6,31.7,1.2,39.2,1.7c7.5,0.6,24.2,0,24.2,0L705.7,330.7z"/>
<path class="st15" d="M688.8,350.9c-0.2,3-0.4,5.6-0.7,7.2c-5.2,1.4-52.5,2.6-58.2-0.6c-0.2-2.3-0.1-5.1,0-8.2
	C639.9,350.5,678.2,353.2,688.8,350.9z"/>
<path class="st3" d="M688.8,350.9c-10.6,2.3-48.9-0.3-58.9-1.5c0.5-9,2.3-19.5,2.3-19.5c4.3-0.9,36.1-2.6,56,1.2
	C689.1,335.2,689.2,344.1,688.8,350.9z"/>
<ellipse class="st28" cx="657.9" cy="353" rx="4" ry="3.8"/>
<path class="st28" d="M691.4,398.3c-5.9,0.7-35.4,2.6-50.3,0.9c-14.4-1.7-17.3-2.6-17.4-2.7c0,0,0,0,0,0l-2.2-36.5
	c7.2,2.1,19.8,5.1,70,4C691.3,371,693.1,384.2,691.4,398.3z"/>
<path class="st1" d="M588,323.4l-16.3,53l3.5,2.4l19.4,3.1c0,0,11.9-39,16.9-48.9c0.2-3.3,0-5.9,0-5.9L588,323.4z"/>
<polygon class="st3" points="590.7,328.7 587.1,339.9 600.1,342.2 604.3,331.4 "/>
<polygon class="st15" points="593,329.1 590.4,336.7 601.8,337.9 600.1,342.2 587.1,339.9 590.7,328.7 "/>
<path class="st5" d="M384.2,286.8l-2.4,10.7h5.3c3.1,0,5.6-2.5,5.6-5.6v-5.2H384.2z"/>
<path class="st5" d="M384.9,338.7l-5.6,10.7h75.2c3.1,0,5.6-2.5,5.6-5.6v-5.2H384.9z"/>
<path class="st5" d="M373,392.7l-4.1,10.7h85.6c3.1,0,5.6-2.5,5.6-5.6v-5.2H373z"/>
</svg>
