<?xml version="1.0" encoding="utf-8"?>
<!-- Generator: Adobe Illustrator 23.0.3, SVG Export Plug-In . SVG Version: 6.00 Build 0)  -->
<svg version="1.1" id="Layer_1" xmlns="http://www.w3.org/2000/svg" xmlns:xlink="http://www.w3.org/1999/xlink" x="0px" y="0px"
	 viewBox="0 0 36 40" style="enable-background:new 0 0 36 40;" xml:space="preserve">
<style type="text/css">
	.st0{fill:none;stroke:#71747C;stroke-linecap:round;stroke-linejoin:round;stroke-miterlimit:10;}
</style>
<path class="st0" d="M13.3,32.1c11.2,0,17.3-9.3,17.3-17.3c0-0.3,0-0.5,0-0.8c1.1-0.8,2.4-2.3,2.4-4.5c-0.8,0.4-2.3,0.9-3.6,0.8
	c-1-1.5-2.6-2.3-4.9-2.3c-3.4,0-6.1,2.7-6.1,6.1c0,0.5,0.1,0.9,0.2,1.4c-5-0.3-9.5-2.7-12.5-6.3c-0.5,0.9-0.8,1.9-0.8,3.1
	c0,2.1,1.1,4,2.7,5.1c-1,0-1.9-0.3-2.8-0.8c0,0,0,0.1,0,0.1c0,2.9,2.1,5.4,4.9,6c-0.5,0.1-1,0.2-1.6,0.2c-0.4,0-0.8,0-1.1-0.1
	c0.8,2.4,3,4.2,5.7,4.2c-2.1,1.6-4.7,2.6-7.5,2.6c-0.5,0-1,0-1.4-0.1C6.7,31.1,9.9,32.1,13.3,32.1"/>
</svg>
