<?xml version="1.0" encoding="utf-8"?>
<!-- Generator: Adobe Illustrator 23.0.3, SVG Export Plug-In . SVG Version: 6.00 Build 0)  -->
<svg version="1.1" id="Layer_1" xmlns="http://www.w3.org/2000/svg" xmlns:xlink="http://www.w3.org/1999/xlink" x="0px" y="0px"
	 viewBox="0 0 190 70" style="enable-background:new 0 0 190 70;" xml:space="preserve">
<style type="text/css">
	.st0{fill:#DD953E;}
	.st1{fill:#C97F35;}
	.st2{fill:none;stroke:#FFFFFF;stroke-width:1.8523;stroke-linecap:round;stroke-linejoin:round;stroke-miterlimit:10;}
	.st3{fill:#FFFFFF;}
	.st4{fill:#71747C;}
</style>
<path class="st0" d="M82.2,20.5H14.7c-4.8,0-8.7-3.9-8.7-8.7v47.1c0,5.1,4.1,9.2,9.2,9.2h66.6c5.1,0,9.2-4.1,9.2-9.2V29.2
	C90.9,24.4,87,20.5,82.2,20.5z"/>
<path class="st1" d="M81.8,2H15.2C10.1,2,6,6.1,6,11.2v0.6c0,4.8,3.9,8.7,8.7,8.7h67.5c4.8,0,8.7,3.9,8.7,8.7v-18
	C90.9,6.1,86.8,2,81.8,2z"/>
<polygon class="st2" points="48.2,28.8 35.2,36.3 35.2,51.3 48.2,58.8 61.2,51.3 61.2,36.3 "/>
<path class="st3" d="M54.8,44.7c-0.4-0.6-1-1-1.8-1.3v-0.1c1.3-0.6,1.9-1.6,1.9-3c0-1.2-0.4-2.2-1.3-2.9c-0.9-0.7-2.1-1.1-3.6-1.1
	h-7.9v15h8.2c1.6,0,2.8-0.4,3.7-1.2s1.3-1.9,1.3-3.3C55.4,46,55.2,45.3,54.8,44.7z M46.2,39.2h3c0.6,0,1,0.1,1.3,0.4
	c0.3,0.3,0.5,0.7,0.5,1.2s-0.2,0.9-0.5,1.1c-0.3,0.3-0.8,0.4-1.3,0.4h-3V39.2z M50.9,47.8c-0.3,0.3-0.8,0.4-1.4,0.4h-3.3V45h3.3
	c0.6,0,1.1,0.1,1.4,0.4c0.3,0.3,0.5,0.7,0.5,1.2C51.3,47.1,51.2,47.6,50.9,47.8z"/>
<path class="st4" d="M113.8,19v2h0.1c0.5-0.8,1.2-1.3,2-1.7s1.7-0.6,2.7-0.6c0.7,0,1.4,0.1,2,0.3s1.2,0.5,1.7,0.9s0.9,1,1.2,1.7
	s0.4,1.5,0.4,2.4v9.8h-2.6v-9c0-1.4-0.3-2.4-0.8-3s-1.4-0.9-2.5-0.9c-1,0-2,0.4-2.7,1.2s-1.1,2-1.1,3.5v8.1h-2.6V19H113.8z"/>
<path class="st4" d="M137,33.8v-2h-0.1c-0.5,0.8-1.2,1.3-2,1.7s-1.7,0.6-2.7,0.6c-0.7,0-1.4-0.1-2-0.3s-1.2-0.5-1.7-0.9
	s-0.9-1-1.2-1.7s-0.4-1.5-0.4-2.4V19h2.6v9c0,1.4,0.3,2.4,0.8,3s1.4,0.9,2.5,0.9c1.1,0,2-0.4,2.7-1.2s1.1-2,1.1-3.5V19h2.6v14.8H137
	z"/>
<path class="st4" d="M142.7,19h2.5v2.3h0.1c0.4-0.8,1-1.4,1.8-1.9s1.7-0.7,2.8-0.7c0.4,0,0.9,0,1.3,0.1v2.5c-0.6-0.1-1-0.1-1.4-0.1
	c-1.3,0-2.4,0.4-3.2,1.2s-1.2,2-1.2,3.6v7.8h-2.6V19z"/>
<path class="st4" d="M161.3,23.5c-0.1-0.9-0.4-1.6-1-2s-1.4-0.7-2.4-0.7c-0.9,0-1.6,0.2-2.2,0.6s-0.8,0.9-0.8,1.5
	c0,0.9,0.7,1.6,2.2,1.8l2.8,0.6c0.5,0.1,0.8,0.2,1.1,0.3s0.6,0.2,1,0.3s0.7,0.3,0.9,0.5s0.5,0.4,0.7,0.7s0.4,0.6,0.5,1
	s0.2,0.9,0.2,1.4c0,1-0.3,1.9-0.8,2.6c-0.5,0.7-1.3,1.2-2.2,1.5s-2,0.5-3.2,0.5c-2,0-3.5-0.5-4.6-1.4c-1.1-0.9-1.7-2.2-1.7-3.8h2.7
	c0.1,2.1,1.4,3.2,3.7,3.2c1,0,1.9-0.2,2.5-0.6s0.9-1,0.9-1.7c0-0.6-0.2-1.1-0.6-1.4s-1-0.6-1.8-0.8l-2.6-0.6c-0.4-0.1-0.7-0.2-1-0.2
	s-0.6-0.2-1-0.3s-0.7-0.3-0.9-0.5s-0.5-0.4-0.7-0.7s-0.4-0.6-0.5-1s-0.2-0.8-0.2-1.3c0-1.3,0.5-2.4,1.6-3.1s2.4-1.1,4.1-1.1
	c1.8,0,3.3,0.4,4.4,1.2s1.7,2,1.7,3.5H161.3z"/>
<path class="st4" d="M179.1,29.4c0,0.4-0.1,0.8-0.3,1.2s-0.4,0.8-0.7,1.3c-0.3,0.4-0.7,0.8-1.2,1.1s-1,0.6-1.8,0.8s-1.5,0.3-2.4,0.3
	c-2.2,0-3.9-0.7-5.2-2.1c-1.3-1.4-1.9-3.3-1.9-5.6c0-2.3,0.6-4.2,1.9-5.6s2.9-2.1,4.9-2.1c2,0,3.7,0.7,4.9,2.1s1.9,3.2,1.9,5.6
	c0,0.3,0,0.5,0,0.6h-10.9c0,1.5,0.4,2.7,1.2,3.6s1.9,1.4,3.3,1.4c0.6,0,1.2-0.1,1.6-0.2s0.8-0.4,1.1-0.6s0.5-0.5,0.6-0.8
	s0.2-0.5,0.3-0.8H179.1z M172.5,20.9c-1.2,0-2.1,0.4-2.9,1.2s-1.1,1.8-1.2,2.9h8.2c0-1.1-0.4-2-1.2-2.9S173.7,20.9,172.5,20.9z"/>
<path class="st4" d="M129.7,42h2.8l-5,14.8h-2.6l-2.4-7.4c-0.2-0.5-0.4-1.2-0.6-1.9s-0.3-1.3-0.5-1.7l-0.2-0.6h-0.1
	c-0.4,1.6-0.8,3-1.2,4.2l-2.4,7.4h-2.5L110,42h2.9l2.3,7.6c0.2,0.5,0.3,1.2,0.5,1.9s0.3,1.3,0.4,1.7l0.2,0.6h0.1
	c0.3-1.5,0.7-2.9,1.1-4.1L120,42h2.7l2.4,7.6c0.2,0.5,0.4,1.2,0.5,1.9s0.3,1.3,0.4,1.7l0.2,0.6h0.1c0.4-1.6,0.7-3,1.1-4.2L129.7,42z
	"/>
<path class="st4" d="M145.6,54.7c0.3,0,0.6,0,0.7-0.1v2.2c-0.2,0.1-0.7,0.1-1.5,0.1c-0.8,0-1.4-0.1-1.8-0.4s-0.7-0.8-0.8-1.4h-0.1
	c-0.5,0.7-1.2,1.2-2.1,1.6s-1.8,0.5-2.8,0.5c-1.4,0-2.5-0.4-3.4-1.2s-1.4-1.9-1.4-3.2c0-0.8,0.1-1.4,0.4-2s0.6-1,1.1-1.4
	s1-0.6,1.5-0.8s1.1-0.3,1.8-0.4l2.8-0.4c0.7-0.1,1.3-0.3,1.6-0.6s0.5-0.7,0.5-1.3c0-0.6-0.3-1.1-0.8-1.4s-1.3-0.5-2.2-0.5
	c-1,0-1.8,0.2-2.5,0.6s-1,1.1-1,1.9h-2.6c0-1.5,0.5-2.7,1.7-3.5s2.6-1.2,4.4-1.2c1.8,0,3.1,0.4,4.1,1.1s1.5,1.8,1.5,3.1v7.9
	c0,0.3,0.1,0.6,0.2,0.7S145.4,54.7,145.6,54.7z M142.2,50.9v-1.9c-0.2,0.3-1,0.5-2.3,0.7l-1.9,0.3c-1.9,0.3-2.9,1.2-2.9,2.7
	c0,0.8,0.2,1.3,0.7,1.7s1.1,0.6,1.9,0.6c0.5,0,1-0.1,1.5-0.2s1-0.4,1.4-0.7s0.8-0.7,1.1-1.3S142.2,51.7,142.2,50.9z"/>
<path class="st4" d="M148.3,56.8V36.5h2.6v20.3H148.3z"/>
<path class="st4" d="M154.5,56.8V36.5h2.6v20.3H154.5z"/>
<path class="st4" d="M173.2,52.4c0,0.4-0.1,0.8-0.3,1.2s-0.4,0.8-0.7,1.3s-0.7,0.8-1.2,1.1s-1,0.6-1.8,0.8s-1.5,0.3-2.4,0.3
	c-2.2,0-3.9-0.7-5.2-2.1s-1.9-3.3-1.9-5.6c0-2.3,0.6-4.2,1.9-5.6s2.9-2.1,4.9-2.1c2,0,3.7,0.7,4.9,2.1s1.9,3.2,1.9,5.6
	c0,0.3,0,0.5,0,0.6h-10.9c0,1.5,0.4,2.7,1.2,3.6s1.9,1.4,3.3,1.4c0.6,0,1.2-0.1,1.6-0.2s0.8-0.4,1.1-0.6s0.5-0.5,0.6-0.8
	s0.2-0.5,0.3-0.8H173.2z M166.6,43.9c-1.2,0-2.1,0.4-2.9,1.2s-1.1,1.8-1.2,2.9h8.2c0-1.1-0.4-2-1.2-2.9S167.8,43.9,166.6,43.9z"/>
<path class="st4" d="M180.8,54.9c0.6,0,1.2-0.1,1.7-0.3v2.2c-0.5,0.2-1.2,0.3-2.1,0.3c-1.3,0-2.2-0.3-2.8-0.8s-0.9-1.4-0.9-2.7V44
	h-2.5v-2h2.5v-4.2h2.6V42h3.3v2h-3.3v9.4c0,0.6,0.1,1,0.3,1.2S180.2,54.9,180.8,54.9z"/>
</svg>
